<mxfile host="app.diagrams.net" agent="Mozilla/5.0 (Macintosh; Intel Mac OS X 10_15_7) AppleWebKit/605.1.15 (KHTML, like Gecko) Version/18.2 Safari/605.1.15" version="26.0.10">
  <diagram name="Page-1" id="UydJ2hcEZS3Cv35CTdD3">
    <mxGraphModel dx="2818" dy="2372" grid="1" gridSize="10" guides="1" tooltips="1" connect="1" arrows="1" fold="1" page="1" pageScale="1" pageWidth="850" pageHeight="1100" math="0" shadow="0">
      <root>
        <mxCell id="0" />
        <mxCell id="1" parent="0" />
        <mxCell id="M1_Aba_VDG0qhdQRLLz_-1" value="&lt;span style=&quot;white-space: pre;&quot;&gt;INPUT&lt;/span&gt;&lt;div&gt;&lt;span style=&quot;white-space: pre;&quot;&gt; TOKEN&lt;/span&gt;&lt;span style=&quot;white-space: pre;&quot;&gt;&#x9;&lt;/span&gt;&lt;/div&gt;" style="rounded=0;whiteSpace=wrap;html=1;direction=south;" vertex="1" parent="1">
          <mxGeometry x="10" y="10" width="60" height="200" as="geometry" />
        </mxCell>
        <mxCell id="M1_Aba_VDG0qhdQRLLz_-298" style="edgeStyle=orthogonalEdgeStyle;rounded=0;orthogonalLoop=1;jettySize=auto;html=1;" edge="1" parent="1" source="M1_Aba_VDG0qhdQRLLz_-272">
          <mxGeometry relative="1" as="geometry">
            <mxPoint x="4600" y="240" as="targetPoint" />
            <Array as="points">
              <mxPoint x="4650" y="930" />
              <mxPoint x="4650" y="240" />
              <mxPoint x="4630" y="240" />
            </Array>
          </mxGeometry>
        </mxCell>
        <mxCell id="M1_Aba_VDG0qhdQRLLz_-3" value="INDEX" style="shape=singleArrow;whiteSpace=wrap;html=1;arrowWidth=0.4;arrowSize=0.4;rounded=0;" vertex="1" parent="1">
          <mxGeometry x="70" y="80" width="80" height="60" as="geometry" />
        </mxCell>
        <mxCell id="M1_Aba_VDG0qhdQRLLz_-5" value="" style="whiteSpace=wrap;html=1;aspect=fixed;" vertex="1" parent="1">
          <mxGeometry x="170" y="30" width="140" height="140" as="geometry" />
        </mxCell>
        <mxCell id="M1_Aba_VDG0qhdQRLLz_-6" value="" style="whiteSpace=wrap;html=1;aspect=fixed;" vertex="1" parent="1">
          <mxGeometry x="175" y="35" width="130" height="130" as="geometry" />
        </mxCell>
        <mxCell id="M1_Aba_VDG0qhdQRLLz_-7" value="W_Embedding" style="whiteSpace=wrap;html=1;aspect=fixed;" vertex="1" parent="1">
          <mxGeometry x="185" y="45" width="110" height="110" as="geometry" />
        </mxCell>
        <mxCell id="M1_Aba_VDG0qhdQRLLz_-9" value="" style="shape=image;html=1;verticalAlign=top;verticalLabelPosition=bottom;labelBackgroundColor=#ffffff;imageAspect=0;aspect=fixed;image=https://cdn2.iconfinder.com/data/icons/css-vol-2/24/math-equal-128.png" vertex="1" parent="1">
          <mxGeometry x="310" y="70" width="60" height="60" as="geometry" />
        </mxCell>
        <mxCell id="M1_Aba_VDG0qhdQRLLz_-10" value="&lt;br&gt;&lt;div&gt;(input vector)&lt;/div&gt;&lt;div&gt;Hooked&lt;/div&gt;" style="rounded=0;whiteSpace=wrap;html=1;" vertex="1" parent="1">
          <mxGeometry x="380" y="70" width="120" height="60" as="geometry" />
        </mxCell>
        <mxCell id="M1_Aba_VDG0qhdQRLLz_-12" value="" style="shape=requiredInterface;html=1;verticalLabelPosition=bottom;sketch=0;" vertex="1" parent="1">
          <mxGeometry x="800" y="20" width="10" height="190" as="geometry" />
        </mxCell>
        <mxCell id="M1_Aba_VDG0qhdQRLLz_-344" value="" style="edgeStyle=orthogonalEdgeStyle;rounded=0;orthogonalLoop=1;jettySize=auto;html=1;" edge="1" parent="1" source="M1_Aba_VDG0qhdQRLLz_-13" target="M1_Aba_VDG0qhdQRLLz_-14">
          <mxGeometry relative="1" as="geometry" />
        </mxCell>
        <mxCell id="M1_Aba_VDG0qhdQRLLz_-13" value="" style="shape=requiredInterface;html=1;verticalLabelPosition=bottom;sketch=0;direction=west;" vertex="1" parent="1">
          <mxGeometry x="580" y="15" width="20" height="195" as="geometry" />
        </mxCell>
        <mxCell id="M1_Aba_VDG0qhdQRLLz_-14" value="W_POSitonal&lt;div&gt;embedding&lt;/div&gt;" style="whiteSpace=wrap;html=1;aspect=fixed;" vertex="1" parent="1">
          <mxGeometry x="620" y="45" width="145" height="145" as="geometry" />
        </mxCell>
        <mxCell id="M1_Aba_VDG0qhdQRLLz_-15" value="m= d_model = 128" style="text;html=1;align=center;verticalAlign=middle;resizable=0;points=[];autosize=1;strokeColor=none;fillColor=none;" vertex="1" parent="1">
          <mxGeometry x="380" y="125" width="120" height="30" as="geometry" />
        </mxCell>
        <mxCell id="M1_Aba_VDG0qhdQRLLz_-16" value="n=seq_len" style="text;html=1;align=center;verticalAlign=middle;resizable=0;points=[];autosize=1;strokeColor=none;fillColor=none;rotation=270;" vertex="1" parent="1">
          <mxGeometry x="330" y="85" width="80" height="30" as="geometry" />
        </mxCell>
        <mxCell id="M1_Aba_VDG0qhdQRLLz_-18" value="m= d_model = 128" style="text;html=1;align=center;verticalAlign=middle;resizable=0;points=[];autosize=1;strokeColor=none;fillColor=none;" vertex="1" parent="1">
          <mxGeometry x="632.5" y="190" width="120" height="30" as="geometry" />
        </mxCell>
        <mxCell id="M1_Aba_VDG0qhdQRLLz_-19" value="n=n_ctx=2048" style="text;html=1;align=center;verticalAlign=middle;resizable=0;points=[];autosize=1;strokeColor=none;fillColor=none;rotation=270;" vertex="1" parent="1">
          <mxGeometry x="560" y="102.5" width="100" height="30" as="geometry" />
        </mxCell>
        <mxCell id="M1_Aba_VDG0qhdQRLLz_-21" value="m=l" style="text;html=1;align=center;verticalAlign=middle;resizable=0;points=[];autosize=1;strokeColor=none;fillColor=none;" vertex="1" parent="1">
          <mxGeometry x="20" y="210" width="40" height="30" as="geometry" />
        </mxCell>
        <mxCell id="M1_Aba_VDG0qhdQRLLz_-22" value="n=seq_len" style="text;html=1;align=center;verticalAlign=middle;resizable=0;points=[];autosize=1;strokeColor=none;fillColor=none;rotation=270;" vertex="1" parent="1">
          <mxGeometry x="-40" y="95" width="80" height="30" as="geometry" />
        </mxCell>
        <mxCell id="M1_Aba_VDG0qhdQRLLz_-23" value="m= d_model = 128" style="text;html=1;align=center;verticalAlign=middle;resizable=0;points=[];autosize=1;strokeColor=none;fillColor=none;" vertex="1" parent="1">
          <mxGeometry x="180" y="160" width="120" height="30" as="geometry" />
        </mxCell>
        <mxCell id="M1_Aba_VDG0qhdQRLLz_-24" value="n=d_vocab=50304" style="text;html=1;align=center;verticalAlign=middle;resizable=0;points=[];autosize=1;strokeColor=none;fillColor=none;rotation=270;" vertex="1" parent="1">
          <mxGeometry x="95" y="90" width="120" height="30" as="geometry" />
        </mxCell>
        <mxCell id="M1_Aba_VDG0qhdQRLLz_-27" value="W_Quary" style="rounded=0;whiteSpace=wrap;html=1;" vertex="1" parent="1">
          <mxGeometry x="28.25" y="280" width="129" height="100" as="geometry" />
        </mxCell>
        <mxCell id="M1_Aba_VDG0qhdQRLLz_-28" value="b_Query" style="rounded=0;whiteSpace=wrap;html=1;" vertex="1" parent="1">
          <mxGeometry x="20" y="420" width="170" height="40" as="geometry" />
        </mxCell>
        <mxCell id="M1_Aba_VDG0qhdQRLLz_-31" value="" style="html=1;shadow=0;dashed=0;align=center;verticalAlign=middle;shape=mxgraph.arrows2.arrow;dy=0.76;dx=39.67;direction=north;notch=0;fillColor=#d0cee2;strokeColor=#56517e;" vertex="1" parent="1">
          <mxGeometry x="570" y="540" width="55" height="100" as="geometry" />
        </mxCell>
        <mxCell id="M1_Aba_VDG0qhdQRLLz_-47" style="edgeStyle=orthogonalEdgeStyle;rounded=0;orthogonalLoop=1;jettySize=auto;html=1;exitX=1;exitY=0.5;exitDx=0;exitDy=0;" edge="1" parent="1">
          <mxGeometry relative="1" as="geometry">
            <mxPoint x="-10" y="420" as="targetPoint" />
            <mxPoint x="-150" y="620" as="sourcePoint" />
            <Array as="points">
              <mxPoint x="-150" y="630" />
              <mxPoint x="-70" y="630" />
              <mxPoint x="-70" y="420" />
            </Array>
          </mxGeometry>
        </mxCell>
        <mxCell id="M1_Aba_VDG0qhdQRLLz_-42" value="Inl1.hook normalized" style="rounded=0;whiteSpace=wrap;html=1;" vertex="1" parent="1">
          <mxGeometry x="-280" y="590" width="120" height="60" as="geometry" />
        </mxCell>
        <mxCell id="M1_Aba_VDG0qhdQRLLz_-43" value="In1.b" style="rounded=0;whiteSpace=wrap;html=1;" vertex="1" parent="1">
          <mxGeometry x="-280" y="684" width="120" height="60" as="geometry" />
        </mxCell>
        <mxCell id="M1_Aba_VDG0qhdQRLLz_-44" value="ln1.w" style="rounded=0;whiteSpace=wrap;html=1;" vertex="1" parent="1">
          <mxGeometry x="-280" y="794" width="120" height="60" as="geometry" />
        </mxCell>
        <mxCell id="M1_Aba_VDG0qhdQRLLz_-45" value="hook _resid pre" style="rounded=0;whiteSpace=wrap;html=1;" vertex="1" parent="1">
          <mxGeometry x="-275" y="992.75" width="150" height="64" as="geometry" />
        </mxCell>
        <mxCell id="M1_Aba_VDG0qhdQRLLz_-46" value="" style="html=1;shadow=0;dashed=0;align=center;verticalAlign=middle;shape=mxgraph.arrows2.arrow;dy=0.76;dx=39.67;direction=north;notch=0;" vertex="1" parent="1">
          <mxGeometry x="-255" y="874" width="70" height="100" as="geometry" />
        </mxCell>
        <mxCell id="M1_Aba_VDG0qhdQRLLz_-49" style="edgeStyle=orthogonalEdgeStyle;rounded=0;orthogonalLoop=1;jettySize=auto;html=1;flowAnimation=0;" edge="1" parent="1">
          <mxGeometry relative="1" as="geometry">
            <mxPoint x="-10" y="790" as="targetPoint" />
            <mxPoint x="-160" y="600" as="sourcePoint" />
            <Array as="points">
              <mxPoint x="-160" y="630" />
              <mxPoint x="-80" y="630" />
              <mxPoint x="-80" y="790" />
            </Array>
          </mxGeometry>
        </mxCell>
        <mxCell id="M1_Aba_VDG0qhdQRLLz_-50" value="" style="endArrow=classic;html=1;rounded=0;" edge="1" parent="1">
          <mxGeometry width="50" height="50" relative="1" as="geometry">
            <mxPoint x="-80" y="630" as="sourcePoint" />
            <mxPoint x="-20" y="630" as="targetPoint" />
          </mxGeometry>
        </mxCell>
        <mxCell id="M1_Aba_VDG0qhdQRLLz_-51" value="W_Key" style="rounded=0;whiteSpace=wrap;html=1;" vertex="1" parent="1">
          <mxGeometry x="26" y="510" width="129" height="100" as="geometry" />
        </mxCell>
        <mxCell id="M1_Aba_VDG0qhdQRLLz_-52" value="b_Key" style="rounded=0;whiteSpace=wrap;html=1;" vertex="1" parent="1">
          <mxGeometry x="20.5" y="644" width="170" height="40" as="geometry" />
        </mxCell>
        <mxCell id="M1_Aba_VDG0qhdQRLLz_-53" value="W_Value" style="rounded=0;whiteSpace=wrap;html=1;" vertex="1" parent="1">
          <mxGeometry x="60" y="727.5" width="120" height="100" as="geometry" />
        </mxCell>
        <mxCell id="M1_Aba_VDG0qhdQRLLz_-54" value="b_Value" style="rounded=0;whiteSpace=wrap;html=1;" vertex="1" parent="1">
          <mxGeometry x="20.5" y="860" width="170" height="40" as="geometry" />
        </mxCell>
        <mxCell id="M1_Aba_VDG0qhdQRLLz_-55" value="" style="shape=image;html=1;verticalAlign=top;verticalLabelPosition=bottom;labelBackgroundColor=#ffffff;imageAspect=0;aspect=fixed;image=https://cdn2.iconfinder.com/data/icons/css-vol-2/24/math-equal-128.png" vertex="1" parent="1">
          <mxGeometry x="220" y="370" width="60" height="60" as="geometry" />
        </mxCell>
        <mxCell id="M1_Aba_VDG0qhdQRLLz_-60" value="" style="group;flipH=1;" vertex="1" connectable="0" parent="1">
          <mxGeometry x="290" y="350" width="235" height="105" as="geometry" />
        </mxCell>
        <mxCell id="M1_Aba_VDG0qhdQRLLz_-57" value="" style="rounded=0;whiteSpace=wrap;html=1;" vertex="1" parent="M1_Aba_VDG0qhdQRLLz_-60">
          <mxGeometry x="26.704545454545453" y="9.545454545454545" width="197.61363636363637" height="76.36363636363636" as="geometry" />
        </mxCell>
        <mxCell id="M1_Aba_VDG0qhdQRLLz_-58" value="" style="rounded=0;whiteSpace=wrap;html=1;" vertex="1" parent="M1_Aba_VDG0qhdQRLLz_-60">
          <mxGeometry x="16.022727272727273" y="19.09090909090909" width="197.61363636363637" height="76.36363636363636" as="geometry" />
        </mxCell>
        <mxCell id="M1_Aba_VDG0qhdQRLLz_-59" value="&lt;div&gt;(query vectors)&lt;/div&gt;&lt;div&gt;attn.hook_q&lt;/div&gt;" style="rounded=0;whiteSpace=wrap;html=1;" vertex="1" parent="M1_Aba_VDG0qhdQRLLz_-60">
          <mxGeometry y="28.636363636363637" width="197.61363636363637" height="76.36363636363636" as="geometry" />
        </mxCell>
        <mxCell id="M1_Aba_VDG0qhdQRLLz_-220" value="&lt;span style=&quot;caret-color: rgb(0, 0, 0); color: rgb(0, 0, 0); font-family: Helvetica; font-size: 12px; font-style: normal; font-variant-caps: normal; font-weight: 400; letter-spacing: normal; orphans: auto; text-align: center; text-indent: 0px; text-transform: none; white-space: nowrap; widows: auto; word-spacing: 0px; -webkit-text-stroke-width: 0px; background-color: rgb(251, 251, 251); text-decoration: none; display: inline !important; float: none;&quot;&gt;n_head=4&lt;/span&gt;" style="text;whiteSpace=wrap;html=1;rotation=314;" vertex="1" parent="M1_Aba_VDG0qhdQRLLz_-60">
          <mxGeometry x="-30" y="-11.360000000000014" width="100" height="40" as="geometry" />
        </mxCell>
        <mxCell id="M1_Aba_VDG0qhdQRLLz_-61" value="" style="shape=image;html=1;verticalAlign=top;verticalLabelPosition=bottom;labelBackgroundColor=#ffffff;imageAspect=0;aspect=fixed;image=https://cdn2.iconfinder.com/data/icons/css-vol-2/24/math-equal-128.png" vertex="1" parent="1">
          <mxGeometry x="230" y="595" width="60" height="60" as="geometry" />
        </mxCell>
        <mxCell id="M1_Aba_VDG0qhdQRLLz_-62" value="" style="group;flipH=1;" vertex="1" connectable="0" parent="1">
          <mxGeometry x="305" y="570" width="220" height="110" as="geometry" />
        </mxCell>
        <mxCell id="M1_Aba_VDG0qhdQRLLz_-63" value="" style="rounded=0;whiteSpace=wrap;html=1;" vertex="1" parent="M1_Aba_VDG0qhdQRLLz_-62">
          <mxGeometry x="25" y="10" width="185" height="80" as="geometry" />
        </mxCell>
        <mxCell id="M1_Aba_VDG0qhdQRLLz_-64" value="" style="rounded=0;whiteSpace=wrap;html=1;" vertex="1" parent="M1_Aba_VDG0qhdQRLLz_-62">
          <mxGeometry x="15" y="20" width="185" height="80" as="geometry" />
        </mxCell>
        <mxCell id="M1_Aba_VDG0qhdQRLLz_-65" value="&lt;div&gt;(query vectors)&lt;/div&gt;&lt;div&gt;attn.hook_k&lt;/div&gt;" style="rounded=0;whiteSpace=wrap;html=1;" vertex="1" parent="M1_Aba_VDG0qhdQRLLz_-62">
          <mxGeometry y="30" width="185" height="80" as="geometry" />
        </mxCell>
        <mxCell id="M1_Aba_VDG0qhdQRLLz_-219" value="&lt;span style=&quot;caret-color: rgb(0, 0, 0); color: rgb(0, 0, 0); font-family: Helvetica; font-size: 12px; font-style: normal; font-variant-caps: normal; font-weight: 400; letter-spacing: normal; orphans: auto; text-align: center; text-indent: 0px; text-transform: none; white-space: nowrap; widows: auto; word-spacing: 0px; -webkit-text-stroke-width: 0px; background-color: rgb(251, 251, 251); text-decoration: none; display: inline !important; float: none;&quot;&gt;n_head=4&lt;/span&gt;" style="text;whiteSpace=wrap;html=1;rotation=314;" vertex="1" parent="M1_Aba_VDG0qhdQRLLz_-62">
          <mxGeometry x="-45" y="-10" width="100" height="40" as="geometry" />
        </mxCell>
        <mxCell id="M1_Aba_VDG0qhdQRLLz_-222" value="n=seq_len" style="text;html=1;align=center;verticalAlign=middle;resizable=0;points=[];autosize=1;strokeColor=none;fillColor=none;rotation=270;" vertex="1" parent="M1_Aba_VDG0qhdQRLLz_-62">
          <mxGeometry x="-45" y="60" width="80" height="30" as="geometry" />
        </mxCell>
        <mxCell id="M1_Aba_VDG0qhdQRLLz_-66" value="" style="shape=image;html=1;verticalAlign=top;verticalLabelPosition=bottom;labelBackgroundColor=#ffffff;imageAspect=0;aspect=fixed;image=https://cdn2.iconfinder.com/data/icons/css-vol-2/24/math-equal-128.png" vertex="1" parent="1">
          <mxGeometry x="240" y="785" width="60" height="60" as="geometry" />
        </mxCell>
        <mxCell id="M1_Aba_VDG0qhdQRLLz_-67" value="" style="group;flipH=1;" vertex="1" connectable="0" parent="1">
          <mxGeometry x="315" y="760" width="220" height="110" as="geometry" />
        </mxCell>
        <mxCell id="M1_Aba_VDG0qhdQRLLz_-68" value="" style="rounded=0;whiteSpace=wrap;html=1;" vertex="1" parent="M1_Aba_VDG0qhdQRLLz_-67">
          <mxGeometry x="25" y="10" width="185" height="80" as="geometry" />
        </mxCell>
        <mxCell id="M1_Aba_VDG0qhdQRLLz_-69" value="" style="rounded=0;whiteSpace=wrap;html=1;" vertex="1" parent="M1_Aba_VDG0qhdQRLLz_-67">
          <mxGeometry x="15" y="20" width="185" height="80" as="geometry" />
        </mxCell>
        <mxCell id="M1_Aba_VDG0qhdQRLLz_-70" value="&lt;div&gt;(value vectors)&lt;/div&gt;&lt;div&gt;attn.hook_v&lt;/div&gt;" style="rounded=0;whiteSpace=wrap;html=1;" vertex="1" parent="M1_Aba_VDG0qhdQRLLz_-67">
          <mxGeometry y="30" width="185" height="80" as="geometry" />
        </mxCell>
        <mxCell id="M1_Aba_VDG0qhdQRLLz_-218" value="&lt;span style=&quot;caret-color: rgb(0, 0, 0); color: rgb(0, 0, 0); font-family: Helvetica; font-size: 12px; font-style: normal; font-variant-caps: normal; font-weight: 400; letter-spacing: normal; orphans: auto; text-align: center; text-indent: 0px; text-transform: none; white-space: nowrap; widows: auto; word-spacing: 0px; -webkit-text-stroke-width: 0px; background-color: rgb(251, 251, 251); text-decoration: none; display: inline !important; float: none;&quot;&gt;n_head=4&lt;/span&gt;" style="text;whiteSpace=wrap;html=1;rotation=314;" vertex="1" parent="M1_Aba_VDG0qhdQRLLz_-67">
          <mxGeometry x="-35" y="-10" width="100" height="40" as="geometry" />
        </mxCell>
        <mxCell id="M1_Aba_VDG0qhdQRLLz_-228" value="n=seq_len" style="text;html=1;align=center;verticalAlign=middle;resizable=0;points=[];autosize=1;strokeColor=none;fillColor=none;rotation=270;" vertex="1" parent="M1_Aba_VDG0qhdQRLLz_-67">
          <mxGeometry x="-45" y="70" width="80" height="30" as="geometry" />
        </mxCell>
        <mxCell id="M1_Aba_VDG0qhdQRLLz_-71" value="" style="html=1;shadow=0;dashed=0;align=center;verticalAlign=middle;shape=mxgraph.arrows2.arrow;dy=0.76;dx=39.67;direction=south;notch=0;fillColor=#e51400;fontColor=#ffffff;strokeColor=#B20000;" vertex="1" parent="1">
          <mxGeometry x="570" y="390" width="43" height="90" as="geometry" />
        </mxCell>
        <mxCell id="M1_Aba_VDG0qhdQRLLz_-73" style="edgeStyle=orthogonalEdgeStyle;rounded=0;orthogonalLoop=1;jettySize=auto;html=1;entryX=0;entryY=0.5;entryDx=0;entryDy=0;entryPerimeter=0;" edge="1" parent="1" source="M1_Aba_VDG0qhdQRLLz_-64" target="M1_Aba_VDG0qhdQRLLz_-31">
          <mxGeometry relative="1" as="geometry">
            <Array as="points">
              <mxPoint x="538" y="650" />
              <mxPoint x="538" y="660" />
              <mxPoint x="598" y="660" />
            </Array>
          </mxGeometry>
        </mxCell>
        <mxCell id="M1_Aba_VDG0qhdQRLLz_-74" style="edgeStyle=orthogonalEdgeStyle;rounded=0;orthogonalLoop=1;jettySize=auto;html=1;exitX=1;exitY=0.5;exitDx=0;exitDy=0;entryX=0;entryY=0;entryDx=0;entryDy=26.66;entryPerimeter=0;" edge="1" parent="1" source="M1_Aba_VDG0qhdQRLLz_-57" target="M1_Aba_VDG0qhdQRLLz_-71">
          <mxGeometry relative="1" as="geometry" />
        </mxCell>
        <mxCell id="M1_Aba_VDG0qhdQRLLz_-75" value="" style="whiteSpace=wrap;html=1;aspect=fixed;" vertex="1" parent="1">
          <mxGeometry x="720" y="460" width="180" height="180" as="geometry" />
        </mxCell>
        <mxCell id="M1_Aba_VDG0qhdQRLLz_-77" value="" style="whiteSpace=wrap;html=1;aspect=fixed;" vertex="1" parent="1">
          <mxGeometry x="700" y="480" width="175" height="175" as="geometry" />
        </mxCell>
        <mxCell id="M1_Aba_VDG0qhdQRLLz_-78" value="(attn heads)&lt;div&gt;attn.hook_attn_scores&lt;/div&gt;" style="whiteSpace=wrap;html=1;aspect=fixed;" vertex="1" parent="1">
          <mxGeometry x="687.5" y="502.5" width="175" height="175" as="geometry" />
        </mxCell>
        <mxCell id="M1_Aba_VDG0qhdQRLLz_-79" value="softmax" style="html=1;shadow=0;dashed=0;align=center;verticalAlign=middle;shape=mxgraph.arrows2.arrow;dy=0.6;dx=40;notch=0;" vertex="1" parent="1">
          <mxGeometry x="940" y="525" width="100" height="70" as="geometry" />
        </mxCell>
        <mxCell id="M1_Aba_VDG0qhdQRLLz_-81" value="" style="whiteSpace=wrap;html=1;aspect=fixed;" vertex="1" parent="1">
          <mxGeometry x="1092.5" y="455" width="180" height="180" as="geometry" />
        </mxCell>
        <mxCell id="M1_Aba_VDG0qhdQRLLz_-82" value="" style="whiteSpace=wrap;html=1;aspect=fixed;" vertex="1" parent="1">
          <mxGeometry x="1072.5" y="475" width="175" height="175" as="geometry" />
        </mxCell>
        <mxCell id="M1_Aba_VDG0qhdQRLLz_-83" value="(scaled attention)&lt;div&gt;attn.hook_pattern&lt;/div&gt;" style="whiteSpace=wrap;html=1;aspect=fixed;" vertex="1" parent="1">
          <mxGeometry x="1060" y="497.5" width="175" height="175" as="geometry" />
        </mxCell>
        <mxCell id="M1_Aba_VDG0qhdQRLLz_-84" value="&lt;font style=&quot;font-size: 36px;&quot;&gt;x&lt;/font&gt;" style="text;html=1;align=center;verticalAlign=middle;resizable=0;points=[];autosize=1;strokeColor=none;fillColor=none;" vertex="1" parent="1">
          <mxGeometry x="1300" y="530" width="40" height="60" as="geometry" />
        </mxCell>
        <mxCell id="M1_Aba_VDG0qhdQRLLz_-88" value="&lt;font style=&quot;font-size: 50px;&quot;&gt;v&lt;/font&gt;" style="text;html=1;align=center;verticalAlign=middle;resizable=0;points=[];autosize=1;strokeColor=none;fillColor=none;" vertex="1" parent="1">
          <mxGeometry x="1360" y="527.5" width="50" height="70" as="geometry" />
        </mxCell>
        <mxCell id="M1_Aba_VDG0qhdQRLLz_-90" value="" style="shape=image;html=1;verticalAlign=top;verticalLabelPosition=bottom;labelBackgroundColor=#ffffff;imageAspect=0;aspect=fixed;image=https://cdn2.iconfinder.com/data/icons/css-vol-2/24/math-equal-128.png" vertex="1" parent="1">
          <mxGeometry x="1430" y="538.5" width="71.5" height="71.5" as="geometry" />
        </mxCell>
        <mxCell id="M1_Aba_VDG0qhdQRLLz_-91" value="" style="group;flipH=1;" vertex="1" connectable="0" parent="1">
          <mxGeometry x="1550" y="510" width="220" height="110" as="geometry" />
        </mxCell>
        <mxCell id="M1_Aba_VDG0qhdQRLLz_-92" value="" style="rounded=0;whiteSpace=wrap;html=1;" vertex="1" parent="M1_Aba_VDG0qhdQRLLz_-91">
          <mxGeometry x="25" y="10" width="185" height="80" as="geometry" />
        </mxCell>
        <mxCell id="M1_Aba_VDG0qhdQRLLz_-93" value="" style="rounded=0;whiteSpace=wrap;html=1;" vertex="1" parent="M1_Aba_VDG0qhdQRLLz_-91">
          <mxGeometry x="15" y="20" width="185" height="80" as="geometry" />
        </mxCell>
        <mxCell id="M1_Aba_VDG0qhdQRLLz_-94" value="(weighted values)&lt;div&gt;attn.hook_z&lt;/div&gt;" style="rounded=0;whiteSpace=wrap;html=1;" vertex="1" parent="M1_Aba_VDG0qhdQRLLz_-91">
          <mxGeometry y="30" width="185" height="80" as="geometry" />
        </mxCell>
        <mxCell id="M1_Aba_VDG0qhdQRLLz_-232" value="&lt;span style=&quot;caret-color: rgb(0, 0, 0); color: rgb(0, 0, 0); font-family: Helvetica; font-size: 12px; font-style: normal; font-variant-caps: normal; font-weight: 400; letter-spacing: normal; orphans: auto; text-align: center; text-indent: 0px; text-transform: none; white-space: nowrap; widows: auto; word-spacing: 0px; -webkit-text-stroke-width: 0px; background-color: rgb(251, 251, 251); text-decoration: none; display: inline !important; float: none;&quot;&gt;n_head=4&lt;/span&gt;" style="text;whiteSpace=wrap;html=1;rotation=314;" vertex="1" parent="M1_Aba_VDG0qhdQRLLz_-91">
          <mxGeometry x="-50" y="-10" width="100" height="40" as="geometry" />
        </mxCell>
        <mxCell id="M1_Aba_VDG0qhdQRLLz_-236" value="n=seq_len" style="text;html=1;align=center;verticalAlign=middle;resizable=0;points=[];autosize=1;strokeColor=none;fillColor=none;rotation=270;" vertex="1" parent="M1_Aba_VDG0qhdQRLLz_-91">
          <mxGeometry x="-50" y="55" width="80" height="30" as="geometry" />
        </mxCell>
        <mxCell id="M1_Aba_VDG0qhdQRLLz_-96" value="&lt;font style=&quot;font-size: 39px;&quot;&gt;x&lt;/font&gt;" style="text;html=1;align=center;verticalAlign=middle;resizable=0;points=[];autosize=1;strokeColor=none;fillColor=none;" vertex="1" parent="1">
          <mxGeometry x="1770" y="532.5" width="40" height="60" as="geometry" />
        </mxCell>
        <mxCell id="M1_Aba_VDG0qhdQRLLz_-97" value="cal(heads) +b_output" style="html=1;shadow=0;dashed=0;align=center;verticalAlign=middle;shape=mxgraph.arrows2.arrow;dy=0.6;dx=40;notch=0;" vertex="1" parent="1">
          <mxGeometry x="2070" y="514.25" width="190" height="120" as="geometry" />
        </mxCell>
        <mxCell id="M1_Aba_VDG0qhdQRLLz_-99" value="" style="group;flipH=1;" vertex="1" connectable="0" parent="1">
          <mxGeometry x="2280" y="524.25" width="220" height="110" as="geometry" />
        </mxCell>
        <mxCell id="M1_Aba_VDG0qhdQRLLz_-100" value="(attention output)&lt;div&gt;hook_attn_out&lt;/div&gt;" style="rounded=0;whiteSpace=wrap;html=1;" vertex="1" parent="M1_Aba_VDG0qhdQRLLz_-99">
          <mxGeometry x="25" y="10" width="185" height="80" as="geometry" />
        </mxCell>
        <mxCell id="M1_Aba_VDG0qhdQRLLz_-242" value="n=seq_len" style="text;html=1;align=center;verticalAlign=middle;resizable=0;points=[];autosize=1;strokeColor=none;fillColor=none;rotation=270;" vertex="1" parent="M1_Aba_VDG0qhdQRLLz_-99">
          <mxGeometry x="-30" y="30.75" width="80" height="30" as="geometry" />
        </mxCell>
        <mxCell id="M1_Aba_VDG0qhdQRLLz_-103" value="" style="group;flipH=1;" vertex="1" connectable="0" parent="1">
          <mxGeometry x="1830" y="520" width="220" height="110" as="geometry" />
        </mxCell>
        <mxCell id="M1_Aba_VDG0qhdQRLLz_-104" value="" style="rounded=0;whiteSpace=wrap;html=1;" vertex="1" parent="M1_Aba_VDG0qhdQRLLz_-103">
          <mxGeometry x="25" y="10" width="185" height="80" as="geometry" />
        </mxCell>
        <mxCell id="M1_Aba_VDG0qhdQRLLz_-105" value="" style="rounded=0;whiteSpace=wrap;html=1;" vertex="1" parent="M1_Aba_VDG0qhdQRLLz_-103">
          <mxGeometry x="15" y="20" width="185" height="80" as="geometry" />
        </mxCell>
        <mxCell id="M1_Aba_VDG0qhdQRLLz_-106" value="W_output" style="rounded=0;whiteSpace=wrap;html=1;" vertex="1" parent="M1_Aba_VDG0qhdQRLLz_-103">
          <mxGeometry y="30" width="185" height="80" as="geometry" />
        </mxCell>
        <mxCell id="M1_Aba_VDG0qhdQRLLz_-120" value="In2.hook normalized" style="rounded=0;whiteSpace=wrap;html=1;" vertex="1" parent="1">
          <mxGeometry x="2610" y="597.5" width="120" height="60" as="geometry" />
        </mxCell>
        <mxCell id="M1_Aba_VDG0qhdQRLLz_-121" value="&amp;nbsp;ln2.b" style="rounded=0;whiteSpace=wrap;html=1;" vertex="1" parent="1">
          <mxGeometry x="2610" y="691.5" width="120" height="60" as="geometry" />
        </mxCell>
        <mxCell id="M1_Aba_VDG0qhdQRLLz_-122" value="ln2.w" style="rounded=0;whiteSpace=wrap;html=1;" vertex="1" parent="1">
          <mxGeometry x="2610" y="801.5" width="120" height="60" as="geometry" />
        </mxCell>
        <mxCell id="M1_Aba_VDG0qhdQRLLz_-124" value="" style="html=1;shadow=0;dashed=0;align=center;verticalAlign=middle;shape=mxgraph.arrows2.arrow;dy=0.76;dx=39.67;direction=north;notch=0;" vertex="1" parent="1">
          <mxGeometry x="2635" y="881.5" width="70" height="100" as="geometry" />
        </mxCell>
        <mxCell id="M1_Aba_VDG0qhdQRLLz_-125" value="&lt;span style=&quot;color: light-dark(rgb(255, 170, 0), rgb(237, 237, 237));&quot;&gt;W_in&lt;sub&gt;mlp&lt;/sub&gt;&lt;/span&gt;" style="rounded=0;whiteSpace=wrap;html=1;" vertex="1" parent="1">
          <mxGeometry x="2820" y="550" width="200" height="110" as="geometry" />
        </mxCell>
        <mxCell id="M1_Aba_VDG0qhdQRLLz_-126" value="&lt;span style=&quot;color: light-dark(rgb(255, 170, 0), rgb(237, 237, 237));&quot;&gt;b_in&lt;sub&gt;mlp&lt;/sub&gt;&lt;/span&gt;" style="rounded=0;whiteSpace=wrap;html=1;" vertex="1" parent="1">
          <mxGeometry x="2820" y="710" width="200" height="70" as="geometry" />
        </mxCell>
        <mxCell id="M1_Aba_VDG0qhdQRLLz_-127" value="" style="shape=image;html=1;verticalAlign=top;verticalLabelPosition=bottom;labelBackgroundColor=#ffffff;imageAspect=0;aspect=fixed;image=https://cdn2.iconfinder.com/data/icons/css-vol-2/24/math-equal-128.png" vertex="1" parent="1">
          <mxGeometry x="3070" y="616" width="128" height="128" as="geometry" />
        </mxCell>
        <mxCell id="M1_Aba_VDG0qhdQRLLz_-128" value="map.hook_pre" style="rounded=0;whiteSpace=wrap;html=1;" vertex="1" parent="1">
          <mxGeometry x="3240" y="650" width="200" height="70" as="geometry" />
        </mxCell>
        <mxCell id="M1_Aba_VDG0qhdQRLLz_-129" value="&lt;div&gt;Gelu&lt;/div&gt;" style="html=1;shadow=0;dashed=0;align=center;verticalAlign=middle;shape=mxgraph.arrows2.arrow;dy=0.6;dx=40;notch=0;" vertex="1" parent="1">
          <mxGeometry x="3500" y="640" width="140" height="95" as="geometry" />
        </mxCell>
        <mxCell id="M1_Aba_VDG0qhdQRLLz_-130" value="mlp.hook_post" style="rounded=0;whiteSpace=wrap;html=1;" vertex="1" parent="1">
          <mxGeometry x="3680" y="657.5" width="200" height="70" as="geometry" />
        </mxCell>
        <mxCell id="M1_Aba_VDG0qhdQRLLz_-131" value="&lt;span style=&quot;color: light-dark(rgb(255, 170, 0), rgb(237, 237, 237));&quot;&gt;W_out&lt;sub&gt;mlp&lt;/sub&gt;&lt;/span&gt;" style="rounded=0;whiteSpace=wrap;html=1;" vertex="1" parent="1">
          <mxGeometry x="3960" y="422.5" width="200" height="261.5" as="geometry" />
        </mxCell>
        <mxCell id="M1_Aba_VDG0qhdQRLLz_-132" value="&lt;span style=&quot;color: light-dark(rgb(213, 132, 0), rgb(237, 237, 237));&quot;&gt;b_out&lt;sub&gt;mlp&lt;/sub&gt;&lt;/span&gt;" style="rounded=0;whiteSpace=wrap;html=1;" vertex="1" parent="1">
          <mxGeometry x="3955" y="775" width="210" height="70" as="geometry" />
        </mxCell>
        <mxCell id="M1_Aba_VDG0qhdQRLLz_-135" value="" style="shape=umlDestroy;whiteSpace=wrap;html=1;strokeWidth=3;targetShapes=umlLifeline;" vertex="1" parent="1">
          <mxGeometry x="3910" y="580" width="30" height="30" as="geometry" />
        </mxCell>
        <mxCell id="M1_Aba_VDG0qhdQRLLz_-136" value="&lt;span style=&quot;font-size: 44px;&quot;&gt;+&lt;/span&gt;" style="text;html=1;align=center;verticalAlign=middle;resizable=0;points=[];autosize=1;strokeColor=none;fillColor=none;" vertex="1" parent="1">
          <mxGeometry x="3880" y="775" width="50" height="70" as="geometry" />
        </mxCell>
        <mxCell id="M1_Aba_VDG0qhdQRLLz_-137" value="" style="shape=image;html=1;verticalAlign=top;verticalLabelPosition=bottom;labelBackgroundColor=#ffffff;imageAspect=0;aspect=fixed;image=https://cdn2.iconfinder.com/data/icons/css-vol-2/24/math-equal-128.png" vertex="1" parent="1">
          <mxGeometry x="4210" y="657.5" width="100" height="100" as="geometry" />
        </mxCell>
        <mxCell id="M1_Aba_VDG0qhdQRLLz_-138" value="map.hook_out" style="rounded=0;whiteSpace=wrap;html=1;" vertex="1" parent="1">
          <mxGeometry x="4350" y="650" width="240" height="92.5" as="geometry" />
        </mxCell>
        <mxCell id="M1_Aba_VDG0qhdQRLLz_-139" value="ln_final.hook_normalized" style="rounded=0;whiteSpace=wrap;html=1;" vertex="1" parent="1">
          <mxGeometry x="4807.5" y="480" width="165" height="60" as="geometry" />
        </mxCell>
        <mxCell id="M1_Aba_VDG0qhdQRLLz_-140" value="ln_final.b" style="rounded=0;whiteSpace=wrap;html=1;" vertex="1" parent="1">
          <mxGeometry x="4825" y="591.5" width="120" height="60" as="geometry" />
        </mxCell>
        <mxCell id="M1_Aba_VDG0qhdQRLLz_-141" value="ln_final.w" style="rounded=0;whiteSpace=wrap;html=1;" vertex="1" parent="1">
          <mxGeometry x="4830" y="702.5" width="120" height="60" as="geometry" />
        </mxCell>
        <mxCell id="M1_Aba_VDG0qhdQRLLz_-143" value="" style="html=1;shadow=0;dashed=0;align=center;verticalAlign=middle;shape=mxgraph.arrows2.arrow;dy=0.76;dx=39.67;direction=north;notch=0;" vertex="1" parent="1">
          <mxGeometry x="4845" y="781.5" width="70" height="100" as="geometry" />
        </mxCell>
        <mxCell id="M1_Aba_VDG0qhdQRLLz_-144" value="" style="shape=umlDestroy;whiteSpace=wrap;html=1;strokeWidth=3;targetShapes=umlLifeline;" vertex="1" parent="1">
          <mxGeometry x="4865" y="420" width="30" height="40" as="geometry" />
        </mxCell>
        <mxCell id="M1_Aba_VDG0qhdQRLLz_-145" value="W_U&lt;sub&gt;nembed&lt;/sub&gt;" style="rounded=0;whiteSpace=wrap;html=1;" vertex="1" parent="1">
          <mxGeometry x="4770" y="260" width="250" height="122.5" as="geometry" />
        </mxCell>
        <mxCell id="M1_Aba_VDG0qhdQRLLz_-146" value="b_U&lt;sub&gt;nembed&lt;/sub&gt;" style="rounded=0;whiteSpace=wrap;html=1;" vertex="1" parent="1">
          <mxGeometry x="4735" y="140" width="320" height="67.5" as="geometry" />
        </mxCell>
        <mxCell id="M1_Aba_VDG0qhdQRLLz_-148" value="" style="shape=image;html=1;verticalAlign=top;verticalLabelPosition=bottom;labelBackgroundColor=#ffffff;imageAspect=0;aspect=fixed;image=https://cdn2.iconfinder.com/data/icons/css-vol-2/24/math-equal-128.png" vertex="1" parent="1">
          <mxGeometry x="4850" y="75" width="95" height="95" as="geometry" />
        </mxCell>
        <mxCell id="M1_Aba_VDG0qhdQRLLz_-149" value="logits" style="rounded=0;whiteSpace=wrap;html=1;" vertex="1" parent="1">
          <mxGeometry x="4735" y="2.5" width="320" height="67.5" as="geometry" />
        </mxCell>
        <mxCell id="M1_Aba_VDG0qhdQRLLz_-154" value="softmax" style="html=1;shadow=0;dashed=0;align=center;verticalAlign=middle;shape=mxgraph.arrows2.arrow;dy=0.6;dx=40;direction=north;notch=0;" vertex="1" parent="1">
          <mxGeometry x="4805" y="-140" width="160" height="120" as="geometry" />
        </mxCell>
        <mxCell id="M1_Aba_VDG0qhdQRLLz_-155" value="probabilities" style="rounded=0;whiteSpace=wrap;html=1;" vertex="1" parent="1">
          <mxGeometry x="4735" y="-280" width="320" height="67.5" as="geometry" />
        </mxCell>
        <mxCell id="M1_Aba_VDG0qhdQRLLz_-156" value="m= d_model = 128" style="text;html=1;align=center;verticalAlign=middle;resizable=0;points=[];autosize=1;strokeColor=none;fillColor=none;" vertex="1" parent="1">
          <mxGeometry x="-280" y="642.5" width="120" height="30" as="geometry" />
        </mxCell>
        <mxCell id="M1_Aba_VDG0qhdQRLLz_-157" value="d_model=128" style="text;html=1;align=center;verticalAlign=middle;resizable=0;points=[];autosize=1;strokeColor=none;fillColor=none;" vertex="1" parent="1">
          <mxGeometry x="-270" y="742.5" width="100" height="30" as="geometry" />
        </mxCell>
        <mxCell id="M1_Aba_VDG0qhdQRLLz_-158" value="d_model=128" style="text;html=1;align=center;verticalAlign=middle;resizable=0;points=[];autosize=1;strokeColor=none;fillColor=none;" vertex="1" parent="1">
          <mxGeometry x="-255" y="855" width="100" height="30" as="geometry" />
        </mxCell>
        <mxCell id="M1_Aba_VDG0qhdQRLLz_-159" value="mask(Q*K^T/dk=sqrt(d_head))" style="text;html=1;align=center;verticalAlign=middle;resizable=0;points=[];autosize=1;strokeColor=none;fillColor=none;" vertex="1" parent="1">
          <mxGeometry x="495" y="498" width="190" height="30" as="geometry" />
        </mxCell>
        <mxCell id="M1_Aba_VDG0qhdQRLLz_-160" value="m=d_model=128" style="text;html=1;align=center;verticalAlign=middle;resizable=0;points=[];autosize=1;strokeColor=none;fillColor=none;" vertex="1" parent="1">
          <mxGeometry x="2350" y="616" width="120" height="30" as="geometry" />
        </mxCell>
        <mxCell id="M1_Aba_VDG0qhdQRLLz_-162" value="" style="shape=umlDestroy;whiteSpace=wrap;html=1;strokeWidth=3;targetShapes=umlLifeline;" vertex="1" parent="1">
          <mxGeometry x="2760" y="603" width="30" height="38.5" as="geometry" />
        </mxCell>
        <mxCell id="M1_Aba_VDG0qhdQRLLz_-163" value="&lt;span style=&quot;font-size: 44px;&quot;&gt;+&lt;/span&gt;" style="text;html=1;align=center;verticalAlign=middle;resizable=0;points=[];autosize=1;strokeColor=none;fillColor=none;" vertex="1" parent="1">
          <mxGeometry x="2760" y="715" width="50" height="70" as="geometry" />
        </mxCell>
        <mxCell id="M1_Aba_VDG0qhdQRLLz_-165" value="" style="shape=image;html=1;verticalAlign=top;verticalLabelPosition=bottom;labelBackgroundColor=#ffffff;imageAspect=0;aspect=fixed;image=https://cdn2.iconfinder.com/data/icons/css-vol-2/24/math-equal-128.png" vertex="1" parent="1">
          <mxGeometry x="4865" y="549.25" width="50" height="50" as="geometry" />
        </mxCell>
        <mxCell id="M1_Aba_VDG0qhdQRLLz_-166" value="&lt;font style=&quot;font-size: 32px;&quot;&gt;+&lt;/font&gt;" style="text;html=1;align=center;verticalAlign=middle;resizable=0;points=[];autosize=1;strokeColor=none;fillColor=none;" vertex="1" parent="1">
          <mxGeometry x="4870" y="208" width="40" height="50" as="geometry" />
        </mxCell>
        <mxCell id="M1_Aba_VDG0qhdQRLLz_-167" value="&lt;font style=&quot;font-size: 32px;&quot;&gt;+&lt;/font&gt;" style="text;html=1;align=center;verticalAlign=middle;resizable=0;points=[];autosize=1;strokeColor=none;fillColor=none;" vertex="1" parent="1">
          <mxGeometry x="4780" y="596.5" width="40" height="50" as="geometry" />
        </mxCell>
        <mxCell id="M1_Aba_VDG0qhdQRLLz_-169" value="" style="shape=umlDestroy;whiteSpace=wrap;html=1;strokeWidth=3;targetShapes=umlLifeline;" vertex="1" parent="1">
          <mxGeometry x="4790" y="725" width="10" height="15" as="geometry" />
        </mxCell>
        <mxCell id="M1_Aba_VDG0qhdQRLLz_-170" value="" style="shape=image;html=1;verticalAlign=top;verticalLabelPosition=bottom;labelBackgroundColor=#ffffff;imageAspect=0;aspect=fixed;image=https://cdn2.iconfinder.com/data/icons/css-vol-2/24/math-equal-128.png" vertex="1" parent="1">
          <mxGeometry x="4510" y="922.75" width="80" height="80" as="geometry" />
        </mxCell>
        <mxCell id="M1_Aba_VDG0qhdQRLLz_-172" value="" style="verticalLabelPosition=bottom;verticalAlign=top;html=1;shape=mxgraph.flowchart.summing_function;" vertex="1" parent="1">
          <mxGeometry x="4390" y="920" width="70" height="70" as="geometry" />
        </mxCell>
        <mxCell id="M1_Aba_VDG0qhdQRLLz_-173" value="n=seq_len" style="text;html=1;align=center;verticalAlign=middle;resizable=0;points=[];autosize=1;strokeColor=none;fillColor=none;rotation=270;" vertex="1" parent="1">
          <mxGeometry x="-340" y="611.5" width="80" height="30" as="geometry" />
        </mxCell>
        <mxCell id="M1_Aba_VDG0qhdQRLLz_-175" value="&lt;span style=&quot;font-size: 36px;&quot;&gt;+&lt;/span&gt;" style="text;html=1;align=center;verticalAlign=middle;resizable=0;points=[];autosize=1;strokeColor=none;fillColor=none;" vertex="1" parent="1">
          <mxGeometry x="-315" y="690" width="40" height="60" as="geometry" />
        </mxCell>
        <mxCell id="M1_Aba_VDG0qhdQRLLz_-176" value="&lt;font style=&quot;font-size: 30px;&quot;&gt;x&lt;/font&gt;" style="text;html=1;align=center;verticalAlign=middle;resizable=0;points=[];autosize=1;strokeColor=none;fillColor=none;" vertex="1" parent="1">
          <mxGeometry x="-315" y="799" width="40" height="50" as="geometry" />
        </mxCell>
        <mxCell id="M1_Aba_VDG0qhdQRLLz_-177" value="&lt;span style=&quot;font-size: 36px;&quot;&gt;+&lt;/span&gt;" style="text;html=1;align=center;verticalAlign=middle;resizable=0;points=[];autosize=1;strokeColor=none;fillColor=none;" vertex="1" parent="1">
          <mxGeometry x="-35" y="405" width="40" height="60" as="geometry" />
        </mxCell>
        <mxCell id="M1_Aba_VDG0qhdQRLLz_-178" value="&lt;span style=&quot;font-size: 36px;&quot;&gt;+&lt;/span&gt;" style="text;html=1;align=center;verticalAlign=middle;resizable=0;points=[];autosize=1;strokeColor=none;fillColor=none;" vertex="1" parent="1">
          <mxGeometry x="-40" y="640" width="40" height="60" as="geometry" />
        </mxCell>
        <mxCell id="M1_Aba_VDG0qhdQRLLz_-179" value="&lt;span style=&quot;font-size: 36px;&quot;&gt;+&lt;/span&gt;" style="text;html=1;align=center;verticalAlign=middle;resizable=0;points=[];autosize=1;strokeColor=none;fillColor=none;" vertex="1" parent="1">
          <mxGeometry x="-39" y="840" width="40" height="60" as="geometry" />
        </mxCell>
        <mxCell id="M1_Aba_VDG0qhdQRLLz_-180" value="&lt;font style=&quot;font-size: 30px;&quot;&gt;x&lt;/font&gt;" style="text;html=1;align=center;verticalAlign=middle;resizable=0;points=[];autosize=1;strokeColor=none;fillColor=none;" vertex="1" parent="1">
          <mxGeometry x="-39" y="530" width="40" height="50" as="geometry" />
        </mxCell>
        <mxCell id="M1_Aba_VDG0qhdQRLLz_-181" value="&lt;font style=&quot;font-size: 30px;&quot;&gt;x&lt;/font&gt;" style="text;html=1;align=center;verticalAlign=middle;resizable=0;points=[];autosize=1;strokeColor=none;fillColor=none;" vertex="1" parent="1">
          <mxGeometry x="-30" y="745" width="40" height="50" as="geometry" />
        </mxCell>
        <mxCell id="M1_Aba_VDG0qhdQRLLz_-182" value="&lt;font style=&quot;font-size: 30px;&quot;&gt;x&lt;/font&gt;" style="text;html=1;align=center;verticalAlign=middle;resizable=0;points=[];autosize=1;strokeColor=none;fillColor=none;" vertex="1" parent="1">
          <mxGeometry x="-39" y="325" width="40" height="50" as="geometry" />
        </mxCell>
        <mxCell id="M1_Aba_VDG0qhdQRLLz_-183" value="m= d_model = 128" style="text;html=1;align=center;verticalAlign=middle;resizable=0;points=[];autosize=1;strokeColor=none;fillColor=none;" vertex="1" parent="1">
          <mxGeometry x="-280" y="1054" width="120" height="30" as="geometry" />
        </mxCell>
        <mxCell id="M1_Aba_VDG0qhdQRLLz_-187" value="m=d_head=32" style="text;html=1;align=center;verticalAlign=middle;resizable=0;points=[];autosize=1;strokeColor=none;fillColor=none;" vertex="1" parent="1">
          <mxGeometry x="30" y="920" width="110" height="30" as="geometry" />
        </mxCell>
        <mxCell id="M1_Aba_VDG0qhdQRLLz_-188" value="&lt;span style=&quot;caret-color: rgb(0, 0, 0); color: rgb(0, 0, 0); font-family: Helvetica; font-size: 12px; font-style: normal; font-variant-caps: normal; font-weight: 400; letter-spacing: normal; orphans: auto; text-align: center; text-indent: 0px; text-transform: none; white-space: nowrap; widows: auto; word-spacing: 0px; -webkit-text-stroke-width: 0px; background-color: rgb(251, 251, 251); text-decoration: none; display: inline !important; float: none;&quot;&gt;m=d_head=32&lt;/span&gt;" style="text;whiteSpace=wrap;html=1;" vertex="1" parent="1">
          <mxGeometry x="20" y="694" width="120" height="40" as="geometry" />
        </mxCell>
        <mxCell id="M1_Aba_VDG0qhdQRLLz_-189" value="&lt;span style=&quot;caret-color: rgb(0, 0, 0); color: rgb(0, 0, 0); font-family: Helvetica; font-size: 12px; font-style: normal; font-variant-caps: normal; font-weight: 400; letter-spacing: normal; orphans: auto; text-align: center; text-indent: 0px; text-transform: none; white-space: nowrap; widows: auto; word-spacing: 0px; -webkit-text-stroke-width: 0px; background-color: rgb(251, 251, 251); text-decoration: none; display: inline !important; float: none;&quot;&gt;m=d_head=32&lt;/span&gt;" style="text;whiteSpace=wrap;html=1;" vertex="1" parent="1">
          <mxGeometry x="20" y="470" width="120" height="40" as="geometry" />
        </mxCell>
        <mxCell id="M1_Aba_VDG0qhdQRLLz_-191" value="n=d_model=128" style="text;html=1;align=center;verticalAlign=middle;resizable=0;points=[];autosize=1;strokeColor=none;fillColor=none;rotation=270;" vertex="1" parent="1">
          <mxGeometry x="-65" y="570" width="110" height="30" as="geometry" />
        </mxCell>
        <mxCell id="M1_Aba_VDG0qhdQRLLz_-192" value="W_Quary" style="rounded=0;whiteSpace=wrap;html=1;" vertex="1" parent="1">
          <mxGeometry x="22.75" y="290" width="129" height="100" as="geometry" />
        </mxCell>
        <mxCell id="M1_Aba_VDG0qhdQRLLz_-193" value="&lt;span style=&quot;color: light-dark(rgb(227, 36, 0), rgb(237, 237, 237));&quot;&gt;W_Quary&lt;/span&gt;" style="rounded=0;whiteSpace=wrap;html=1;" vertex="1" parent="1">
          <mxGeometry x="12.75" y="300" width="129" height="100" as="geometry" />
        </mxCell>
        <mxCell id="M1_Aba_VDG0qhdQRLLz_-194" value="W_Quary" style="rounded=0;whiteSpace=wrap;html=1;" vertex="1" parent="1">
          <mxGeometry x="10" y="525" width="129" height="100" as="geometry" />
        </mxCell>
        <mxCell id="M1_Aba_VDG0qhdQRLLz_-195" value="&lt;span style=&quot;color: light-dark(rgb(135, 78, 254), rgb(237, 237, 237));&quot;&gt;W_Key&lt;/span&gt;" style="rounded=0;whiteSpace=wrap;html=1;" vertex="1" parent="1">
          <mxGeometry y="535" width="129" height="100" as="geometry" />
        </mxCell>
        <mxCell id="M1_Aba_VDG0qhdQRLLz_-196" value="W_Quary" style="rounded=0;whiteSpace=wrap;html=1;" vertex="1" parent="1">
          <mxGeometry x="41" y="735" width="129" height="100" as="geometry" />
        </mxCell>
        <mxCell id="M1_Aba_VDG0qhdQRLLz_-197" value="&lt;span style=&quot;color: light-dark(rgb(119, 187, 65), rgb(237, 237, 237));&quot;&gt;W_Value&lt;/span&gt;" style="rounded=0;whiteSpace=wrap;html=1;" vertex="1" parent="1">
          <mxGeometry x="30" y="742.5" width="130" height="107.5" as="geometry" />
        </mxCell>
        <mxCell id="M1_Aba_VDG0qhdQRLLz_-200" value="n=d_model=128" style="text;html=1;align=center;verticalAlign=middle;resizable=0;points=[];autosize=1;strokeColor=none;fillColor=none;rotation=270;" vertex="1" parent="1">
          <mxGeometry x="-39" y="785" width="110" height="30" as="geometry" />
        </mxCell>
        <mxCell id="M1_Aba_VDG0qhdQRLLz_-201" value="n=d_model=128" style="text;html=1;align=center;verticalAlign=middle;resizable=0;points=[];autosize=1;strokeColor=none;fillColor=none;rotation=270;" vertex="1" parent="1">
          <mxGeometry x="-65" y="352.5" width="110" height="30" as="geometry" />
        </mxCell>
        <mxCell id="M1_Aba_VDG0qhdQRLLz_-205" value="&lt;span style=&quot;color: rgb(255, 0, 0);&quot;&gt;b_Query&lt;/span&gt;" style="rounded=0;whiteSpace=wrap;html=1;" vertex="1" parent="1">
          <mxGeometry x="2.25" y="430" width="170" height="40" as="geometry" />
        </mxCell>
        <mxCell id="M1_Aba_VDG0qhdQRLLz_-207" value="&lt;span style=&quot;color: rgb(127, 0, 255); background-color: light-dark(rgb(255, 255, 255), rgb(255, 159, 255));&quot;&gt;b_Key&lt;/span&gt;" style="rounded=0;whiteSpace=wrap;html=1;" vertex="1" parent="1">
          <mxGeometry x="10" y="651.5" width="170" height="42.5" as="geometry" />
        </mxCell>
        <mxCell id="M1_Aba_VDG0qhdQRLLz_-208" value="&lt;span style=&quot;color: light-dark(rgb(119, 187, 65), rgb(237, 237, 237));&quot;&gt;b_Value&lt;/span&gt;" style="rounded=0;whiteSpace=wrap;html=1;" vertex="1" parent="1">
          <mxGeometry x="15.5" y="874" width="175" height="34" as="geometry" />
        </mxCell>
        <mxCell id="M1_Aba_VDG0qhdQRLLz_-209" value="n_head=4" style="text;html=1;align=center;verticalAlign=middle;resizable=0;points=[];autosize=1;strokeColor=none;fillColor=none;rotation=302;fontFamily=Helvetica;fontSize=12;fontColor=default;" vertex="1" parent="1">
          <mxGeometry x="-35" y="265" width="90" height="30" as="geometry" />
        </mxCell>
        <mxCell id="M1_Aba_VDG0qhdQRLLz_-210" value="&lt;span style=&quot;caret-color: rgb(0, 0, 0); color: rgb(0, 0, 0); font-family: Helvetica; font-size: 12px; font-style: normal; font-variant-caps: normal; font-weight: 400; letter-spacing: normal; orphans: auto; text-align: center; text-indent: 0px; text-transform: none; white-space: nowrap; widows: auto; word-spacing: 0px; -webkit-text-stroke-width: 0px; background-color: rgb(251, 251, 251); text-decoration: none; display: inline !important; float: none;&quot;&gt;n_head=4&lt;/span&gt;" style="text;whiteSpace=wrap;html=1;rotation=314;" vertex="1" parent="1">
          <mxGeometry x="-20" y="390" width="100" height="40" as="geometry" />
        </mxCell>
        <mxCell id="M1_Aba_VDG0qhdQRLLz_-212" value="&lt;span style=&quot;caret-color: rgb(0, 0, 0); color: rgb(0, 0, 0); font-family: Helvetica; font-size: 12px; font-style: normal; font-variant-caps: normal; font-weight: 400; letter-spacing: normal; orphans: auto; text-align: center; text-indent: 0px; text-transform: none; white-space: nowrap; widows: auto; word-spacing: 0px; -webkit-text-stroke-width: 0px; background-color: rgb(251, 251, 251); text-decoration: none; display: inline !important; float: none;&quot;&gt;n_head=4&lt;/span&gt;" style="text;whiteSpace=wrap;html=1;rotation=314;" vertex="1" parent="1">
          <mxGeometry x="-20" y="849" width="100" height="40" as="geometry" />
        </mxCell>
        <mxCell id="M1_Aba_VDG0qhdQRLLz_-214" value="&lt;span style=&quot;caret-color: rgb(0, 0, 0); color: rgb(0, 0, 0); font-family: Helvetica; font-size: 12px; font-style: normal; font-variant-caps: normal; font-weight: 400; letter-spacing: normal; orphans: auto; text-align: center; text-indent: 0px; text-transform: none; white-space: nowrap; widows: auto; word-spacing: 0px; -webkit-text-stroke-width: 0px; background-color: rgb(251, 251, 251); text-decoration: none; display: inline !important; float: none;&quot;&gt;n_head=4&lt;/span&gt;" style="text;whiteSpace=wrap;html=1;rotation=314;" vertex="1" parent="1">
          <mxGeometry x="-10" y="495" width="100" height="40" as="geometry" />
        </mxCell>
        <mxCell id="M1_Aba_VDG0qhdQRLLz_-215" value="&lt;span style=&quot;caret-color: rgb(0, 0, 0); color: rgb(0, 0, 0); font-family: Helvetica; font-size: 12px; font-style: normal; font-variant-caps: normal; font-weight: 400; letter-spacing: normal; orphans: auto; text-align: center; text-indent: 0px; text-transform: none; white-space: nowrap; widows: auto; word-spacing: 0px; -webkit-text-stroke-width: 0px; background-color: rgb(251, 251, 251); text-decoration: none; display: inline !important; float: none;&quot;&gt;n_head=4&lt;/span&gt;" style="text;whiteSpace=wrap;html=1;rotation=314;" vertex="1" parent="1">
          <mxGeometry x="-20" y="632.5" width="100" height="40" as="geometry" />
        </mxCell>
        <mxCell id="M1_Aba_VDG0qhdQRLLz_-216" value="&lt;span style=&quot;caret-color: rgb(0, 0, 0); color: rgb(0, 0, 0); font-family: Helvetica; font-size: 12px; font-style: normal; font-variant-caps: normal; font-weight: 400; letter-spacing: normal; orphans: auto; text-align: center; text-indent: 0px; text-transform: none; white-space: nowrap; widows: auto; word-spacing: 0px; -webkit-text-stroke-width: 0px; background-color: rgb(251, 251, 251); text-decoration: none; display: inline !important; float: none;&quot;&gt;n_head=4&lt;/span&gt;" style="text;whiteSpace=wrap;html=1;rotation=314;" vertex="1" parent="1">
          <mxGeometry x="10" y="720" width="100" height="40" as="geometry" />
        </mxCell>
        <mxCell id="M1_Aba_VDG0qhdQRLLz_-224" value="m=d_head=32" style="text;html=1;align=center;verticalAlign=middle;resizable=0;points=[];autosize=1;strokeColor=none;fillColor=none;" vertex="1" parent="1">
          <mxGeometry x="330" y="680" width="110" height="30" as="geometry" />
        </mxCell>
        <mxCell id="M1_Aba_VDG0qhdQRLLz_-225" value="m=d_head=32" style="text;html=1;align=center;verticalAlign=middle;resizable=0;points=[];autosize=1;strokeColor=none;fillColor=none;" vertex="1" parent="1">
          <mxGeometry x="360" y="881.5" width="110" height="30" as="geometry" />
        </mxCell>
        <mxCell id="M1_Aba_VDG0qhdQRLLz_-223" value="m=d_head=32" style="text;html=1;align=center;verticalAlign=middle;resizable=0;points=[];autosize=1;strokeColor=none;fillColor=none;" vertex="1" parent="1">
          <mxGeometry x="320" y="460" width="110" height="30" as="geometry" />
        </mxCell>
        <mxCell id="M1_Aba_VDG0qhdQRLLz_-227" value="n=seq_len" style="text;html=1;align=center;verticalAlign=middle;resizable=0;points=[];autosize=1;strokeColor=none;fillColor=none;rotation=270;" vertex="1" parent="1">
          <mxGeometry x="235" y="422.5" width="80" height="30" as="geometry" />
        </mxCell>
        <mxCell id="M1_Aba_VDG0qhdQRLLz_-230" value="&lt;span style=&quot;caret-color: rgb(0, 0, 0); color: rgb(0, 0, 0); font-family: Helvetica; font-size: 12px; font-style: normal; font-variant-caps: normal; font-weight: 400; letter-spacing: normal; orphans: auto; text-align: center; text-indent: 0px; text-transform: none; white-space: nowrap; widows: auto; word-spacing: 0px; -webkit-text-stroke-width: 0px; background-color: rgb(251, 251, 251); text-decoration: none; display: inline !important; float: none;&quot;&gt;n_head=4&lt;/span&gt;" style="text;whiteSpace=wrap;html=1;rotation=314;" vertex="1" parent="1">
          <mxGeometry x="665" y="450" width="100" height="40" as="geometry" />
        </mxCell>
        <mxCell id="M1_Aba_VDG0qhdQRLLz_-231" value="&lt;span style=&quot;caret-color: rgb(0, 0, 0); color: rgb(0, 0, 0); font-family: Helvetica; font-size: 12px; font-style: normal; font-variant-caps: normal; font-weight: 400; letter-spacing: normal; orphans: auto; text-align: center; text-indent: 0px; text-transform: none; white-space: nowrap; widows: auto; word-spacing: 0px; -webkit-text-stroke-width: 0px; background-color: rgb(251, 251, 251); text-decoration: none; display: inline !important; float: none;&quot;&gt;n_head=4&lt;/span&gt;" style="text;whiteSpace=wrap;html=1;rotation=314;" vertex="1" parent="1">
          <mxGeometry x="1030" y="440" width="100" height="40" as="geometry" />
        </mxCell>
        <mxCell id="M1_Aba_VDG0qhdQRLLz_-233" value="&lt;span style=&quot;caret-color: rgb(0, 0, 0); color: rgb(0, 0, 0); font-family: Helvetica; font-size: 12px; font-style: normal; font-variant-caps: normal; font-weight: 400; letter-spacing: normal; orphans: auto; text-align: center; text-indent: 0px; text-transform: none; white-space: nowrap; widows: auto; word-spacing: 0px; -webkit-text-stroke-width: 0px; background-color: rgb(251, 251, 251); text-decoration: none; display: inline !important; float: none;&quot;&gt;n_head=4&lt;/span&gt;" style="text;whiteSpace=wrap;html=1;rotation=314;" vertex="1" parent="1">
          <mxGeometry x="1790" y="500" width="100" height="40" as="geometry" />
        </mxCell>
        <mxCell id="M1_Aba_VDG0qhdQRLLz_-234" value="n=seq_len" style="text;html=1;align=center;verticalAlign=middle;resizable=0;points=[];autosize=1;strokeColor=none;fillColor=none;rotation=270;" vertex="1" parent="1">
          <mxGeometry x="1012.5" y="559.25" width="80" height="30" as="geometry" />
        </mxCell>
        <mxCell id="M1_Aba_VDG0qhdQRLLz_-235" value="n=seq_len" style="text;html=1;align=center;verticalAlign=middle;resizable=0;points=[];autosize=1;strokeColor=none;fillColor=none;rotation=270;" vertex="1" parent="1">
          <mxGeometry x="640" y="570" width="80" height="30" as="geometry" />
        </mxCell>
        <mxCell id="M1_Aba_VDG0qhdQRLLz_-237" value="m=seq_len" style="text;html=1;align=center;verticalAlign=middle;resizable=0;points=[];autosize=1;strokeColor=none;fillColor=none;" vertex="1" parent="1">
          <mxGeometry x="740" y="670" width="80" height="30" as="geometry" />
        </mxCell>
        <mxCell id="M1_Aba_VDG0qhdQRLLz_-238" value="m=seq_len" style="text;html=1;align=center;verticalAlign=middle;resizable=0;points=[];autosize=1;strokeColor=none;fillColor=none;" vertex="1" parent="1">
          <mxGeometry x="1100" y="670" width="80" height="30" as="geometry" />
        </mxCell>
        <mxCell id="M1_Aba_VDG0qhdQRLLz_-239" value="m=d_head=32" style="text;html=1;align=center;verticalAlign=middle;resizable=0;points=[];autosize=1;strokeColor=none;fillColor=none;" vertex="1" parent="1">
          <mxGeometry x="1590" y="620" width="110" height="30" as="geometry" />
        </mxCell>
        <mxCell id="M1_Aba_VDG0qhdQRLLz_-240" value="m=d_model=128" style="text;html=1;align=center;verticalAlign=middle;resizable=0;points=[];autosize=1;strokeColor=none;fillColor=none;" vertex="1" parent="1">
          <mxGeometry x="1865" y="627.5" width="120" height="30" as="geometry" />
        </mxCell>
        <mxCell id="M1_Aba_VDG0qhdQRLLz_-241" value="n=d_head=32X" style="text;html=1;align=center;verticalAlign=middle;resizable=0;points=[];autosize=1;strokeColor=none;fillColor=none;rotation=270;" vertex="1" parent="1">
          <mxGeometry x="1760" y="580" width="120" height="30" as="geometry" />
        </mxCell>
        <mxCell id="M1_Aba_VDG0qhdQRLLz_-243" value="hook _resid pre" style="rounded=0;whiteSpace=wrap;html=1;" vertex="1" parent="1">
          <mxGeometry x="2295" y="1014.75" width="120" height="60" as="geometry" />
        </mxCell>
        <mxCell id="M1_Aba_VDG0qhdQRLLz_-244" value="n=seq_len" style="text;html=1;align=center;verticalAlign=middle;resizable=0;points=[];autosize=1;strokeColor=none;fillColor=none;rotation=270;" vertex="1" parent="1">
          <mxGeometry x="2240" y="1032.25" width="80" height="30" as="geometry" />
        </mxCell>
        <mxCell id="M1_Aba_VDG0qhdQRLLz_-247" value="m=d_model=128" style="text;html=1;align=center;verticalAlign=middle;resizable=0;points=[];autosize=1;strokeColor=none;fillColor=none;" vertex="1" parent="1">
          <mxGeometry x="2275" y="1064.75" width="120" height="30" as="geometry" />
        </mxCell>
        <mxCell id="M1_Aba_VDG0qhdQRLLz_-248" value="hook _resid pre" style="rounded=0;whiteSpace=wrap;html=1;" vertex="1" parent="1">
          <mxGeometry x="2625" y="1011.5" width="120" height="60" as="geometry" />
        </mxCell>
        <mxCell id="M1_Aba_VDG0qhdQRLLz_-249" value="n=seq_len" style="text;html=1;align=center;verticalAlign=middle;resizable=0;points=[];autosize=1;strokeColor=none;fillColor=none;rotation=270;" vertex="1" parent="1">
          <mxGeometry x="2570" y="1029" width="80" height="30" as="geometry" />
        </mxCell>
        <mxCell id="M1_Aba_VDG0qhdQRLLz_-250" value="m=d_model=128" style="text;html=1;align=center;verticalAlign=middle;resizable=0;points=[];autosize=1;strokeColor=none;fillColor=none;" vertex="1" parent="1">
          <mxGeometry x="2625" y="1061.5" width="120" height="30" as="geometry" />
        </mxCell>
        <mxCell id="M1_Aba_VDG0qhdQRLLz_-251" value="n=seq_len" style="text;html=1;align=center;verticalAlign=middle;resizable=0;points=[];autosize=1;strokeColor=none;fillColor=none;rotation=270;" vertex="1" parent="1">
          <mxGeometry x="2550" y="614.25" width="80" height="30" as="geometry" />
        </mxCell>
        <mxCell id="M1_Aba_VDG0qhdQRLLz_-253" value="m=d_model=128" style="text;html=1;align=center;verticalAlign=middle;resizable=0;points=[];autosize=1;strokeColor=none;fillColor=none;" vertex="1" parent="1">
          <mxGeometry x="2610" y="649" width="120" height="30" as="geometry" />
        </mxCell>
        <mxCell id="M1_Aba_VDG0qhdQRLLz_-254" value="d_model=128" style="text;html=1;align=center;verticalAlign=middle;resizable=0;points=[];autosize=1;strokeColor=none;fillColor=none;" vertex="1" parent="1">
          <mxGeometry x="2625" y="855" width="100" height="30" as="geometry" />
        </mxCell>
        <mxCell id="M1_Aba_VDG0qhdQRLLz_-255" value="d_model=128" style="text;html=1;align=center;verticalAlign=middle;resizable=0;points=[];autosize=1;strokeColor=none;fillColor=none;" vertex="1" parent="1">
          <mxGeometry x="2620" y="751.5" width="100" height="30" as="geometry" />
        </mxCell>
        <mxCell id="M1_Aba_VDG0qhdQRLLz_-256" value="m= 4x d _model= 512" style="text;html=1;align=center;verticalAlign=middle;resizable=0;points=[];autosize=1;strokeColor=none;fillColor=none;" vertex="1" parent="1">
          <mxGeometry x="2835" y="654" width="140" height="30" as="geometry" />
        </mxCell>
        <mxCell id="M1_Aba_VDG0qhdQRLLz_-257" value="n=l" style="text;html=1;align=center;verticalAlign=middle;resizable=0;points=[];autosize=1;strokeColor=none;fillColor=none;rotation=270;" vertex="1" parent="1">
          <mxGeometry x="2790" y="727.5" width="40" height="30" as="geometry" />
        </mxCell>
        <mxCell id="M1_Aba_VDG0qhdQRLLz_-258" value="n=d_model" style="text;html=1;align=center;verticalAlign=middle;resizable=0;points=[];autosize=1;strokeColor=none;fillColor=none;rotation=270;" vertex="1" parent="1">
          <mxGeometry x="2770" y="597.5" width="80" height="30" as="geometry" />
        </mxCell>
        <mxCell id="M1_Aba_VDG0qhdQRLLz_-259" value="m= 4x d _model=512" style="text;html=1;align=center;verticalAlign=middle;resizable=0;points=[];autosize=1;strokeColor=none;fillColor=none;" vertex="1" parent="1">
          <mxGeometry x="2845" y="780" width="140" height="30" as="geometry" />
        </mxCell>
        <mxCell id="M1_Aba_VDG0qhdQRLLz_-260" value="m= 4x d _model= 512" style="text;html=1;align=center;verticalAlign=middle;resizable=0;points=[];autosize=1;strokeColor=none;fillColor=none;" vertex="1" parent="1">
          <mxGeometry x="3270" y="720" width="140" height="30" as="geometry" />
        </mxCell>
        <mxCell id="M1_Aba_VDG0qhdQRLLz_-261" value="m= 4x d _model= 512" style="text;html=1;align=center;verticalAlign=middle;resizable=0;points=[];autosize=1;strokeColor=none;fillColor=none;" vertex="1" parent="1">
          <mxGeometry x="3710" y="720" width="140" height="30" as="geometry" />
        </mxCell>
        <mxCell id="M1_Aba_VDG0qhdQRLLz_-262" value="n=seq_len" style="text;html=1;align=center;verticalAlign=middle;resizable=0;points=[];autosize=1;strokeColor=none;fillColor=none;rotation=270;" vertex="1" parent="1">
          <mxGeometry x="3190" y="677.5" width="80" height="30" as="geometry" />
        </mxCell>
        <mxCell id="M1_Aba_VDG0qhdQRLLz_-264" value="n=seq_len" style="text;html=1;align=center;verticalAlign=middle;resizable=0;points=[];autosize=1;strokeColor=none;fillColor=none;rotation=270;" vertex="1" parent="1">
          <mxGeometry x="3630" y="681.25" width="80" height="30" as="geometry" />
        </mxCell>
        <mxCell id="M1_Aba_VDG0qhdQRLLz_-265" value="m= d _model=128" style="text;html=1;align=center;verticalAlign=middle;resizable=0;points=[];autosize=1;strokeColor=none;fillColor=none;" vertex="1" parent="1">
          <mxGeometry x="3995" y="844" width="120" height="30" as="geometry" />
        </mxCell>
        <mxCell id="M1_Aba_VDG0qhdQRLLz_-266" value="m= d _model=128" style="text;html=1;align=center;verticalAlign=middle;resizable=0;points=[];autosize=1;strokeColor=none;fillColor=none;" vertex="1" parent="1">
          <mxGeometry x="3995" y="681.25" width="120" height="30" as="geometry" />
        </mxCell>
        <mxCell id="M1_Aba_VDG0qhdQRLLz_-267" value="n=4xd_model" style="text;html=1;align=center;verticalAlign=middle;resizable=0;points=[];autosize=1;strokeColor=none;fillColor=none;rotation=270;" vertex="1" parent="1">
          <mxGeometry x="3900" y="514.25" width="100" height="30" as="geometry" />
        </mxCell>
        <mxCell id="M1_Aba_VDG0qhdQRLLz_-268" value="m= d _model=128" style="text;html=1;align=center;verticalAlign=middle;resizable=0;points=[];autosize=1;strokeColor=none;fillColor=none;" vertex="1" parent="1">
          <mxGeometry x="4410" y="742.5" width="120" height="30" as="geometry" />
        </mxCell>
        <mxCell id="M1_Aba_VDG0qhdQRLLz_-269" value="n=seq_len" style="text;html=1;align=center;verticalAlign=middle;resizable=0;points=[];autosize=1;strokeColor=none;fillColor=none;rotation=270;" vertex="1" parent="1">
          <mxGeometry x="4300" y="685" width="80" height="30" as="geometry" />
        </mxCell>
        <mxCell id="M1_Aba_VDG0qhdQRLLz_-272" value="hook _resid pre" style="rounded=0;whiteSpace=wrap;html=1;" vertex="1" parent="1">
          <mxGeometry x="4685" y="920" width="120" height="72.75" as="geometry" />
        </mxCell>
        <mxCell id="M1_Aba_VDG0qhdQRLLz_-273" value="n=seq_len" style="text;html=1;align=center;verticalAlign=middle;resizable=0;points=[];autosize=1;strokeColor=none;fillColor=none;rotation=270;" vertex="1" parent="1">
          <mxGeometry x="4630" y="947.75" width="80" height="30" as="geometry" />
        </mxCell>
        <mxCell id="M1_Aba_VDG0qhdQRLLz_-274" value="m=d_model=128" style="text;html=1;align=center;verticalAlign=middle;resizable=0;points=[];autosize=1;strokeColor=none;fillColor=none;" vertex="1" parent="1">
          <mxGeometry x="4685" y="990.25" width="120" height="30" as="geometry" />
        </mxCell>
        <mxCell id="M1_Aba_VDG0qhdQRLLz_-277" value="" style="edgeStyle=orthogonalEdgeStyle;rounded=0;orthogonalLoop=1;jettySize=auto;html=1;" edge="1" parent="1" source="M1_Aba_VDG0qhdQRLLz_-276" target="M1_Aba_VDG0qhdQRLLz_-275">
          <mxGeometry relative="1" as="geometry" />
        </mxCell>
        <mxCell id="M1_Aba_VDG0qhdQRLLz_-275" value="" style="shape=image;html=1;verticalAlign=top;verticalLabelPosition=bottom;labelBackgroundColor=#ffffff;imageAspect=0;aspect=fixed;image=https://cdn2.iconfinder.com/data/icons/css-vol-2/24/math-equal-128.png" vertex="1" parent="1">
          <mxGeometry x="2556.5" y="1014.75" width="53.5" height="53.5" as="geometry" />
        </mxCell>
        <mxCell id="M1_Aba_VDG0qhdQRLLz_-276" value="" style="verticalLabelPosition=bottom;verticalAlign=top;html=1;shape=mxgraph.flowchart.summing_function;" vertex="1" parent="1">
          <mxGeometry x="2430" y="1014.75" width="60" height="53.5" as="geometry" />
        </mxCell>
        <mxCell id="M1_Aba_VDG0qhdQRLLz_-278" style="edgeStyle=orthogonalEdgeStyle;rounded=0;orthogonalLoop=1;jettySize=auto;html=1;exitX=0.145;exitY=0.855;exitDx=0;exitDy=0;exitPerimeter=0;entryX=0.5;entryY=1;entryDx=0;entryDy=0;entryPerimeter=0;" edge="1" parent="1" source="M1_Aba_VDG0qhdQRLLz_-276" target="M1_Aba_VDG0qhdQRLLz_-276">
          <mxGeometry relative="1" as="geometry" />
        </mxCell>
        <mxCell id="M1_Aba_VDG0qhdQRLLz_-279" value="-mean)/std" style="text;html=1;align=center;verticalAlign=middle;resizable=0;points=[];autosize=1;strokeColor=none;fillColor=none;rotation=270;" vertex="1" parent="1">
          <mxGeometry x="-260" y="921.5" width="80" height="30" as="geometry" />
        </mxCell>
        <mxCell id="M1_Aba_VDG0qhdQRLLz_-280" value="-mean)/std" style="text;html=1;align=center;verticalAlign=middle;resizable=0;points=[];autosize=1;strokeColor=none;fillColor=none;rotation=270;" vertex="1" parent="1">
          <mxGeometry x="2630" y="931.5" width="80" height="30" as="geometry" />
        </mxCell>
        <mxCell id="M1_Aba_VDG0qhdQRLLz_-281" value="-mean)/std" style="text;html=1;align=center;verticalAlign=middle;resizable=0;points=[];autosize=1;strokeColor=none;fillColor=none;rotation=270;" vertex="1" parent="1">
          <mxGeometry x="4840" y="831.5" width="80" height="30" as="geometry" />
        </mxCell>
        <mxCell id="M1_Aba_VDG0qhdQRLLz_-285" value="" style="endArrow=classic;html=1;rounded=0;entryX=0.002;entryY=0.556;entryDx=0;entryDy=0;entryPerimeter=0;" edge="1" parent="1" target="M1_Aba_VDG0qhdQRLLz_-281">
          <mxGeometry width="50" height="50" relative="1" as="geometry">
            <mxPoint x="4805" y="981.5" as="sourcePoint" />
            <mxPoint x="4855" y="931.5" as="targetPoint" />
            <Array as="points">
              <mxPoint x="4855" y="982" />
              <mxPoint x="4882" y="982" />
            </Array>
          </mxGeometry>
        </mxCell>
        <mxCell id="M1_Aba_VDG0qhdQRLLz_-286" value="final layer" style="text;html=1;align=center;verticalAlign=middle;resizable=0;points=[];autosize=1;strokeColor=none;fillColor=none;" vertex="1" parent="1">
          <mxGeometry x="4805" y="951.5" width="70" height="30" as="geometry" />
        </mxCell>
        <mxCell id="M1_Aba_VDG0qhdQRLLz_-287" value="d_model=128" style="text;html=1;align=center;verticalAlign=middle;resizable=0;points=[];autosize=1;strokeColor=none;fillColor=none;" vertex="1" parent="1">
          <mxGeometry x="4840" y="755" width="100" height="30" as="geometry" />
        </mxCell>
        <mxCell id="M1_Aba_VDG0qhdQRLLz_-288" value="m=d_model=128" style="text;html=1;align=center;verticalAlign=middle;resizable=0;points=[];autosize=1;strokeColor=none;fillColor=none;" vertex="1" parent="1">
          <mxGeometry x="4830" y="532.5" width="120" height="30" as="geometry" />
        </mxCell>
        <mxCell id="M1_Aba_VDG0qhdQRLLz_-289" value="m=d_vocab=50304" style="text;html=1;align=center;verticalAlign=middle;resizable=0;points=[];autosize=1;strokeColor=none;fillColor=none;" vertex="1" parent="1">
          <mxGeometry x="4820" y="375" width="120" height="30" as="geometry" />
        </mxCell>
        <mxCell id="M1_Aba_VDG0qhdQRLLz_-290" value="m=d_vocab=50304" style="text;html=1;align=center;verticalAlign=middle;resizable=0;points=[];autosize=1;strokeColor=none;fillColor=none;" vertex="1" parent="1">
          <mxGeometry x="4830" y="200" width="120" height="30" as="geometry" />
        </mxCell>
        <mxCell id="M1_Aba_VDG0qhdQRLLz_-291" value="m=d_vocab=50304" style="text;html=1;align=center;verticalAlign=middle;resizable=0;points=[];autosize=1;strokeColor=none;fillColor=none;" vertex="1" parent="1">
          <mxGeometry x="4820" y="65" width="120" height="30" as="geometry" />
        </mxCell>
        <mxCell id="M1_Aba_VDG0qhdQRLLz_-292" value="m=d_vocab=50304" style="text;html=1;align=center;verticalAlign=middle;resizable=0;points=[];autosize=1;strokeColor=none;fillColor=none;" vertex="1" parent="1">
          <mxGeometry x="4835" y="-220" width="120" height="30" as="geometry" />
        </mxCell>
        <mxCell id="M1_Aba_VDG0qhdQRLLz_-293" value="n=seq_len" style="text;html=1;align=center;verticalAlign=middle;resizable=0;points=[];autosize=1;strokeColor=none;fillColor=none;rotation=270;" vertex="1" parent="1">
          <mxGeometry x="4680" y="170" width="80" height="30" as="geometry" />
        </mxCell>
        <mxCell id="M1_Aba_VDG0qhdQRLLz_-294" value="n=seq_len" style="text;html=1;align=center;verticalAlign=middle;resizable=0;points=[];autosize=1;strokeColor=none;fillColor=none;rotation=270;" vertex="1" parent="1">
          <mxGeometry x="4750" y="502.5" width="80" height="30" as="geometry" />
        </mxCell>
        <mxCell id="M1_Aba_VDG0qhdQRLLz_-295" value="n=seq_len" style="text;html=1;align=center;verticalAlign=middle;resizable=0;points=[];autosize=1;strokeColor=none;fillColor=none;rotation=270;" vertex="1" parent="1">
          <mxGeometry x="4675" y="35" width="80" height="30" as="geometry" />
        </mxCell>
        <mxCell id="M1_Aba_VDG0qhdQRLLz_-296" value="n=d_model" style="text;html=1;align=center;verticalAlign=middle;resizable=0;points=[];autosize=1;strokeColor=none;fillColor=none;rotation=270;" vertex="1" parent="1">
          <mxGeometry x="4710" y="300" width="80" height="30" as="geometry" />
        </mxCell>
        <mxCell id="M1_Aba_VDG0qhdQRLLz_-302" value="" style="endArrow=classic;html=1;rounded=0;" edge="1" parent="1">
          <mxGeometry width="50" height="50" relative="1" as="geometry">
            <mxPoint x="-420" y="240" as="sourcePoint" />
            <mxPoint x="-420" y="1040" as="targetPoint" />
            <Array as="points">
              <mxPoint x="-420" y="480" />
            </Array>
          </mxGeometry>
        </mxCell>
        <mxCell id="M1_Aba_VDG0qhdQRLLz_-310" value="" style="edgeStyle=elbowEdgeStyle;elbow=horizontal;endArrow=classic;html=1;curved=0;rounded=0;endSize=8;startSize=8;" edge="1" parent="1" target="M1_Aba_VDG0qhdQRLLz_-174">
          <mxGeometry width="50" height="50" relative="1" as="geometry">
            <mxPoint x="-420" y="1034" as="sourcePoint" />
            <mxPoint x="-310" y="1029" as="targetPoint" />
            <Array as="points" />
          </mxGeometry>
        </mxCell>
        <mxCell id="M1_Aba_VDG0qhdQRLLz_-174" value="n=seq_len" style="text;html=1;align=center;verticalAlign=middle;resizable=0;points=[];autosize=1;strokeColor=none;fillColor=none;rotation=270;" vertex="1" parent="1">
          <mxGeometry x="-320" y="1020.25" width="80" height="30" as="geometry" />
        </mxCell>
        <mxCell id="M1_Aba_VDG0qhdQRLLz_-300" value="" style="endArrow=classic;html=1;rounded=0;fillColor=#f8cecc;strokeColor=#b85450;" edge="1" parent="1">
          <mxGeometry width="50" height="50" relative="1" as="geometry">
            <mxPoint x="2130" y="240" as="sourcePoint" />
            <mxPoint x="-420" y="240" as="targetPoint" />
            <Array as="points">
              <mxPoint x="1880" y="240" />
            </Array>
          </mxGeometry>
        </mxCell>
        <mxCell id="M1_Aba_VDG0qhdQRLLz_-315" value="" style="endArrow=open;endFill=1;endSize=12;html=1;rounded=0;" edge="1" parent="1">
          <mxGeometry width="160" relative="1" as="geometry">
            <mxPoint x="-110" y="1044" as="sourcePoint" />
            <mxPoint x="2260" y="1044" as="targetPoint" />
            <Array as="points" />
          </mxGeometry>
        </mxCell>
        <mxCell id="M1_Aba_VDG0qhdQRLLz_-316" value="" style="endArrow=open;endFill=1;endSize=12;html=1;rounded=0;" edge="1" parent="1">
          <mxGeometry width="160" relative="1" as="geometry">
            <mxPoint x="2740" y="1040.07" as="sourcePoint" />
            <mxPoint x="4430" y="1040.07" as="targetPoint" />
            <Array as="points" />
          </mxGeometry>
        </mxCell>
        <mxCell id="M1_Aba_VDG0qhdQRLLz_-317" value="" style="edgeStyle=elbowEdgeStyle;elbow=horizontal;endArrow=classic;html=1;curved=0;rounded=0;endSize=8;startSize=8;" edge="1" parent="1">
          <mxGeometry width="50" height="50" relative="1" as="geometry">
            <mxPoint x="4430" y="1040.25" as="sourcePoint" />
            <mxPoint x="4430" y="990" as="targetPoint" />
            <Array as="points" />
          </mxGeometry>
        </mxCell>
        <mxCell id="M1_Aba_VDG0qhdQRLLz_-319" value="" style="endArrow=open;endFill=1;endSize=12;html=1;rounded=0;" edge="1" parent="1" source="M1_Aba_VDG0qhdQRLLz_-268">
          <mxGeometry width="160" relative="1" as="geometry">
            <mxPoint x="4090" y="740" as="sourcePoint" />
            <mxPoint x="4420" y="910" as="targetPoint" />
            <Array as="points">
              <mxPoint x="4420" y="800" />
            </Array>
          </mxGeometry>
        </mxCell>
        <mxCell id="M1_Aba_VDG0qhdQRLLz_-324" value="" style="edgeStyle=orthogonalEdgeStyle;rounded=0;orthogonalLoop=1;jettySize=auto;html=1;" edge="1" parent="1" source="M1_Aba_VDG0qhdQRLLz_-322" target="M1_Aba_VDG0qhdQRLLz_-323">
          <mxGeometry relative="1" as="geometry" />
        </mxCell>
        <mxCell id="M1_Aba_VDG0qhdQRLLz_-325" value="" style="endArrow=classic;html=1;rounded=0;fillColor=#f8cecc;strokeColor=#b85450;" edge="1" parent="1" target="M1_Aba_VDG0qhdQRLLz_-322">
          <mxGeometry width="50" height="50" relative="1" as="geometry">
            <mxPoint x="4650" y="240" as="sourcePoint" />
            <mxPoint x="-420" y="240" as="targetPoint" />
          </mxGeometry>
        </mxCell>
        <mxCell id="M1_Aba_VDG0qhdQRLLz_-322" value="&lt;font style=&quot;font-size: 25px;&quot;&gt;&amp;lt;&lt;/font&gt;" style="text;html=1;align=center;verticalAlign=middle;resizable=0;points=[];autosize=1;strokeColor=none;fillColor=none;" vertex="1" parent="1">
          <mxGeometry x="3810" y="220" width="40" height="40" as="geometry" />
        </mxCell>
        <mxCell id="M1_Aba_VDG0qhdQRLLz_-326" value="" style="endArrow=classic;html=1;rounded=0;fillColor=#f8cecc;strokeColor=#b85450;" edge="1" parent="1" source="M1_Aba_VDG0qhdQRLLz_-322" target="M1_Aba_VDG0qhdQRLLz_-323">
          <mxGeometry width="50" height="50" relative="1" as="geometry">
            <mxPoint x="3810" y="240" as="sourcePoint" />
            <mxPoint x="-420" y="240" as="targetPoint" />
          </mxGeometry>
        </mxCell>
        <mxCell id="M1_Aba_VDG0qhdQRLLz_-323" value="&lt;font style=&quot;font-size: 25px;&quot;&gt;&amp;lt;&lt;/font&gt;" style="text;html=1;align=center;verticalAlign=middle;resizable=0;points=[];autosize=1;strokeColor=none;fillColor=none;rotation=0;" vertex="1" parent="1">
          <mxGeometry x="3490" y="218" width="40" height="40" as="geometry" />
        </mxCell>
        <mxCell id="M1_Aba_VDG0qhdQRLLz_-328" value="" style="endArrow=classic;html=1;rounded=0;fillColor=#f8cecc;strokeColor=#b85450;" edge="1" parent="1" source="M1_Aba_VDG0qhdQRLLz_-323" target="M1_Aba_VDG0qhdQRLLz_-327">
          <mxGeometry width="50" height="50" relative="1" as="geometry">
            <mxPoint x="3490" y="238" as="sourcePoint" />
            <mxPoint x="-420" y="240" as="targetPoint" />
          </mxGeometry>
        </mxCell>
        <mxCell id="M1_Aba_VDG0qhdQRLLz_-327" value="&lt;font style=&quot;font-size: 25px;&quot;&gt;&amp;lt;&lt;/font&gt;" style="text;html=1;align=center;verticalAlign=middle;resizable=0;points=[];autosize=1;strokeColor=none;fillColor=none;rotation=0;" vertex="1" parent="1">
          <mxGeometry x="2530" y="225" width="40" height="40" as="geometry" />
        </mxCell>
        <mxCell id="M1_Aba_VDG0qhdQRLLz_-330" value="" style="endArrow=classic;html=1;rounded=0;fillColor=#f8cecc;strokeColor=#b85450;" edge="1" parent="1" source="M1_Aba_VDG0qhdQRLLz_-327" target="M1_Aba_VDG0qhdQRLLz_-329">
          <mxGeometry width="50" height="50" relative="1" as="geometry">
            <mxPoint x="2540" y="250" as="sourcePoint" />
            <mxPoint x="-420" y="240" as="targetPoint" />
            <Array as="points">
              <mxPoint x="2170" y="240" />
            </Array>
          </mxGeometry>
        </mxCell>
        <mxCell id="M1_Aba_VDG0qhdQRLLz_-329" value="&lt;font style=&quot;font-size: 25px;&quot;&gt;&amp;lt;&lt;/font&gt;" style="text;html=1;align=center;verticalAlign=middle;resizable=0;points=[];autosize=1;strokeColor=none;fillColor=none;rotation=0;" vertex="1" parent="1">
          <mxGeometry x="2100" y="220" width="40" height="40" as="geometry" />
        </mxCell>
        <mxCell id="M1_Aba_VDG0qhdQRLLz_-331" value="" style="shape=partialRectangle;whiteSpace=wrap;html=1;top=0;left=0;fillColor=none;" vertex="1" parent="1">
          <mxGeometry x="540" y="610" width="850" height="233.5" as="geometry" />
        </mxCell>
        <mxCell id="M1_Aba_VDG0qhdQRLLz_-332" value="&lt;font style=&quot;font-size: 34px;&quot;&gt;^&lt;/font&gt;" style="text;html=1;align=center;verticalAlign=middle;resizable=0;points=[];autosize=1;strokeColor=none;fillColor=none;" vertex="1" parent="1">
          <mxGeometry x="1370" y="587.5" width="40" height="50" as="geometry" />
        </mxCell>
        <mxCell id="M1_Aba_VDG0qhdQRLLz_-333" value="&lt;font style=&quot;font-size: 20px;&quot;&gt;&amp;gt;&lt;/font&gt;" style="text;html=1;align=center;verticalAlign=middle;resizable=0;points=[];autosize=1;strokeColor=none;fillColor=none;" vertex="1" parent="1">
          <mxGeometry x="613" y="821.5" width="40" height="40" as="geometry" />
        </mxCell>
        <mxCell id="M1_Aba_VDG0qhdQRLLz_-334" value="" style="edgeStyle=segmentEdgeStyle;endArrow=classic;html=1;curved=0;rounded=0;endSize=8;startSize=8;" edge="1" parent="1">
          <mxGeometry width="50" height="50" relative="1" as="geometry">
            <mxPoint x="810" y="130" as="sourcePoint" />
            <mxPoint x="890" y="236" as="targetPoint" />
          </mxGeometry>
        </mxCell>
        <mxCell id="M1_Aba_VDG0qhdQRLLz_-335" value="&lt;font style=&quot;font-size: 15px;&quot;&gt;+&lt;/font&gt;" style="text;html=1;align=center;verticalAlign=middle;resizable=0;points=[];autosize=1;strokeColor=none;fillColor=none;" vertex="1" parent="1">
          <mxGeometry x="535" y="95" width="30" height="30" as="geometry" />
        </mxCell>
        <mxCell id="M1_Aba_VDG0qhdQRLLz_-336" value="" style="endArrow=open;endFill=1;endSize=12;html=1;rounded=0;exitX=0.837;exitY=0.981;exitDx=0;exitDy=0;exitPerimeter=0;" edge="1" parent="1" source="M1_Aba_VDG0qhdQRLLz_-160">
          <mxGeometry width="160" relative="1" as="geometry">
            <mxPoint x="1780" y="808.5714285714275" as="sourcePoint" />
            <mxPoint x="2450" y="1010" as="targetPoint" />
          </mxGeometry>
        </mxCell>
        <mxCell id="M1_Aba_VDG0qhdQRLLz_-338" value="" style="shape=umlDestroy;whiteSpace=wrap;html=1;strokeWidth=3;targetShapes=umlLifeline;" vertex="1" parent="1">
          <mxGeometry x="2580" y="818" width="30" height="32" as="geometry" />
        </mxCell>
        <mxCell id="M1_Aba_VDG0qhdQRLLz_-339" value="&lt;font style=&quot;font-size: 18px;&quot;&gt;+&lt;/font&gt;" style="text;html=1;align=center;verticalAlign=middle;resizable=0;points=[];autosize=1;strokeColor=none;fillColor=none;" vertex="1" parent="1">
          <mxGeometry x="2580" y="710" width="30" height="30" as="geometry" />
        </mxCell>
        <mxCell id="M1_Aba_VDG0qhdQRLLz_-343" value="" style="edgeStyle=orthogonalEdgeStyle;rounded=0;orthogonalLoop=1;jettySize=auto;html=1;" edge="1" parent="1" source="M1_Aba_VDG0qhdQRLLz_-65" target="M1_Aba_VDG0qhdQRLLz_-218">
          <mxGeometry relative="1" as="geometry" />
        </mxCell>
        <mxCell id="M1_Aba_VDG0qhdQRLLz_-345" value="&lt;font style=&quot;font-size: 34px;&quot;&gt;attention&lt;/font&gt;" style="text;html=1;align=center;verticalAlign=middle;resizable=0;points=[];autosize=1;strokeColor=none;fillColor=none;" vertex="1" parent="1">
          <mxGeometry x="2315" y="288" width="150" height="50" as="geometry" />
        </mxCell>
        <mxCell id="M1_Aba_VDG0qhdQRLLz_-346" value="&lt;font style=&quot;font-size: 31px;&quot;&gt;mlp&lt;/font&gt;" style="text;html=1;align=center;verticalAlign=middle;resizable=0;points=[];autosize=1;strokeColor=none;fillColor=none;" vertex="1" parent="1">
          <mxGeometry x="2610" y="288" width="70" height="50" as="geometry" />
        </mxCell>
        <mxCell id="M1_Aba_VDG0qhdQRLLz_-347" value="" style="endArrow=none;dashed=1;html=1;dashPattern=1 3;strokeWidth=2;rounded=0;entryX=-0.05;entryY=0.825;entryDx=0;entryDy=0;entryPerimeter=0;" edge="1" parent="1" target="M1_Aba_VDG0qhdQRLLz_-327">
          <mxGeometry width="50" height="50" relative="1" as="geometry">
            <mxPoint x="2532" y="1042" as="sourcePoint" />
            <mxPoint x="2330" y="490" as="targetPoint" />
            <Array as="points">
              <mxPoint x="2528" y="580" />
            </Array>
          </mxGeometry>
        </mxCell>
        <mxCell id="M1_Aba_VDG0qhdQRLLz_-350" value="" style="rounded=0;whiteSpace=wrap;html=1;fillColor=#e51400;fontColor=#ffffff;strokeColor=#B20000;" vertex="1" parent="1">
          <mxGeometry x="1880" y="45" width="40" height="35" as="geometry" />
        </mxCell>
        <mxCell id="M1_Aba_VDG0qhdQRLLz_-351" value="" style="rounded=0;whiteSpace=wrap;html=1;fillColor=#d0cee2;strokeColor=#56517e;" vertex="1" parent="1">
          <mxGeometry x="1880" y="87.5" width="40" height="35" as="geometry" />
        </mxCell>
        <mxCell id="M1_Aba_VDG0qhdQRLLz_-352" value="" style="rounded=0;whiteSpace=wrap;html=1;fillColor=#60a917;fontColor=#ffffff;strokeColor=#2D7600;" vertex="1" parent="1">
          <mxGeometry x="1880" y="130" width="40" height="35" as="geometry" />
        </mxCell>
        <mxCell id="M1_Aba_VDG0qhdQRLLz_-353" value="Query Weights and biases" style="text;html=1;align=center;verticalAlign=middle;resizable=0;points=[];autosize=1;strokeColor=none;fillColor=none;" vertex="1" parent="1">
          <mxGeometry x="1920" y="45" width="160" height="30" as="geometry" />
        </mxCell>
        <mxCell id="M1_Aba_VDG0qhdQRLLz_-354" value="Key Weights and biases" style="text;html=1;align=center;verticalAlign=middle;resizable=0;points=[];autosize=1;strokeColor=none;fillColor=none;" vertex="1" parent="1">
          <mxGeometry x="1920" y="87.5" width="150" height="30" as="geometry" />
        </mxCell>
        <mxCell id="M1_Aba_VDG0qhdQRLLz_-355" value="Value Weights and biases" style="text;html=1;align=center;verticalAlign=middle;resizable=0;points=[];autosize=1;strokeColor=none;fillColor=none;" vertex="1" parent="1">
          <mxGeometry x="1910" y="128" width="160" height="30" as="geometry" />
        </mxCell>
        <mxCell id="M1_Aba_VDG0qhdQRLLz_-356" value="" style="rounded=0;whiteSpace=wrap;html=1;fillColor=#e3c800;fontColor=#000000;strokeColor=#B09500;" vertex="1" parent="1">
          <mxGeometry x="1880" y="175" width="40" height="35" as="geometry" />
        </mxCell>
        <mxCell id="M1_Aba_VDG0qhdQRLLz_-357" value="mio weiants" style="text;html=1;align=center;verticalAlign=middle;resizable=0;points=[];autosize=1;strokeColor=none;fillColor=none;" vertex="1" parent="1">
          <mxGeometry x="1935" y="178" width="90" height="30" as="geometry" />
        </mxCell>
      </root>
    </mxGraphModel>
  </diagram>
</mxfile>
